G04 #@! TF.GenerationSoftware,KiCad,Pcbnew,(5.1.5)-3*
G04 #@! TF.CreationDate,2021-04-08T22:52:58+09:00*
G04 #@! TF.ProjectId,ROM28toEPROM32,524f4d32-3874-46f4-9550-524f4d33322e,rev?*
G04 #@! TF.SameCoordinates,Original*
G04 #@! TF.FileFunction,Soldermask,Bot*
G04 #@! TF.FilePolarity,Negative*
%FSLAX46Y46*%
G04 Gerber Fmt 4.6, Leading zero omitted, Abs format (unit mm)*
G04 Created by KiCad (PCBNEW (5.1.5)-3) date 2021-04-08 22:52:58*
%MOMM*%
%LPD*%
G04 APERTURE LIST*
%ADD10C,0.100000*%
G04 APERTURE END LIST*
D10*
G36*
X114655629Y-108706719D02*
G01*
X114731142Y-108714156D01*
X114876476Y-108758243D01*
X114876479Y-108758244D01*
X115010416Y-108829835D01*
X115127817Y-108926183D01*
X115224165Y-109043584D01*
X115295756Y-109177521D01*
X115295757Y-109177524D01*
X115339844Y-109322858D01*
X115354730Y-109474000D01*
X115339844Y-109625142D01*
X115295757Y-109770476D01*
X115295756Y-109770479D01*
X115224165Y-109904416D01*
X115127817Y-110021817D01*
X115010416Y-110118165D01*
X114876479Y-110189756D01*
X114876476Y-110189757D01*
X114731142Y-110233844D01*
X114655629Y-110241281D01*
X114617873Y-110245000D01*
X113982127Y-110245000D01*
X113944371Y-110241281D01*
X113868858Y-110233844D01*
X113723524Y-110189757D01*
X113723521Y-110189756D01*
X113589584Y-110118165D01*
X113472183Y-110021817D01*
X113375835Y-109904416D01*
X113304244Y-109770479D01*
X113304243Y-109770476D01*
X113260156Y-109625142D01*
X113245270Y-109474000D01*
X113260156Y-109322858D01*
X113304243Y-109177524D01*
X113304244Y-109177521D01*
X113375835Y-109043584D01*
X113472183Y-108926183D01*
X113589584Y-108829835D01*
X113723521Y-108758244D01*
X113723524Y-108758243D01*
X113868858Y-108714156D01*
X113944371Y-108706719D01*
X113982127Y-108703000D01*
X114617873Y-108703000D01*
X114655629Y-108706719D01*
G37*
G36*
X91795629Y-108706719D02*
G01*
X91871142Y-108714156D01*
X92016476Y-108758243D01*
X92016479Y-108758244D01*
X92150416Y-108829835D01*
X92267817Y-108926183D01*
X92364165Y-109043584D01*
X92435756Y-109177521D01*
X92435757Y-109177524D01*
X92479844Y-109322858D01*
X92494730Y-109474000D01*
X92479844Y-109625142D01*
X92435757Y-109770476D01*
X92435756Y-109770479D01*
X92364165Y-109904416D01*
X92267817Y-110021817D01*
X92150416Y-110118165D01*
X92016479Y-110189756D01*
X92016476Y-110189757D01*
X91871142Y-110233844D01*
X91795629Y-110241281D01*
X91757873Y-110245000D01*
X91122127Y-110245000D01*
X91084371Y-110241281D01*
X91008858Y-110233844D01*
X90863524Y-110189757D01*
X90863521Y-110189756D01*
X90729584Y-110118165D01*
X90612183Y-110021817D01*
X90515835Y-109904416D01*
X90444244Y-109770479D01*
X90444243Y-109770476D01*
X90400156Y-109625142D01*
X90385270Y-109474000D01*
X90400156Y-109322858D01*
X90444243Y-109177524D01*
X90444244Y-109177521D01*
X90515835Y-109043584D01*
X90612183Y-108926183D01*
X90729584Y-108829835D01*
X90863521Y-108758244D01*
X90863524Y-108758243D01*
X91008858Y-108714156D01*
X91084371Y-108706719D01*
X91122127Y-108703000D01*
X91757873Y-108703000D01*
X91795629Y-108706719D01*
G37*
G36*
X76555629Y-108706719D02*
G01*
X76631142Y-108714156D01*
X76776476Y-108758243D01*
X76776479Y-108758244D01*
X76910416Y-108829835D01*
X77027817Y-108926183D01*
X77124165Y-109043584D01*
X77195756Y-109177521D01*
X77195757Y-109177524D01*
X77239844Y-109322858D01*
X77254730Y-109474000D01*
X77239844Y-109625142D01*
X77195757Y-109770476D01*
X77195756Y-109770479D01*
X77124165Y-109904416D01*
X77027817Y-110021817D01*
X76910416Y-110118165D01*
X76776479Y-110189756D01*
X76776476Y-110189757D01*
X76631142Y-110233844D01*
X76555629Y-110241281D01*
X76517873Y-110245000D01*
X75882127Y-110245000D01*
X75844371Y-110241281D01*
X75768858Y-110233844D01*
X75623524Y-110189757D01*
X75623521Y-110189756D01*
X75489584Y-110118165D01*
X75372183Y-110021817D01*
X75275835Y-109904416D01*
X75204244Y-109770479D01*
X75204243Y-109770476D01*
X75160156Y-109625142D01*
X75145270Y-109474000D01*
X75160156Y-109322858D01*
X75204243Y-109177524D01*
X75204244Y-109177521D01*
X75275835Y-109043584D01*
X75372183Y-108926183D01*
X75489584Y-108829835D01*
X75623521Y-108758244D01*
X75623524Y-108758243D01*
X75768858Y-108714156D01*
X75844371Y-108706719D01*
X75882127Y-108703000D01*
X76517873Y-108703000D01*
X76555629Y-108706719D01*
G37*
G36*
X99415629Y-108706719D02*
G01*
X99491142Y-108714156D01*
X99636476Y-108758243D01*
X99636479Y-108758244D01*
X99770416Y-108829835D01*
X99887817Y-108926183D01*
X99984165Y-109043584D01*
X100055756Y-109177521D01*
X100055757Y-109177524D01*
X100099844Y-109322858D01*
X100114730Y-109474000D01*
X100099844Y-109625142D01*
X100055757Y-109770476D01*
X100055756Y-109770479D01*
X99984165Y-109904416D01*
X99887817Y-110021817D01*
X99770416Y-110118165D01*
X99636479Y-110189756D01*
X99636476Y-110189757D01*
X99491142Y-110233844D01*
X99415629Y-110241281D01*
X99377873Y-110245000D01*
X98742127Y-110245000D01*
X98704371Y-110241281D01*
X98628858Y-110233844D01*
X98483524Y-110189757D01*
X98483521Y-110189756D01*
X98349584Y-110118165D01*
X98232183Y-110021817D01*
X98135835Y-109904416D01*
X98064244Y-109770479D01*
X98064243Y-109770476D01*
X98020156Y-109625142D01*
X98005270Y-109474000D01*
X98020156Y-109322858D01*
X98064243Y-109177524D01*
X98064244Y-109177521D01*
X98135835Y-109043584D01*
X98232183Y-108926183D01*
X98349584Y-108829835D01*
X98483521Y-108758244D01*
X98483524Y-108758243D01*
X98628858Y-108714156D01*
X98704371Y-108706719D01*
X98742127Y-108703000D01*
X99377873Y-108703000D01*
X99415629Y-108706719D01*
G37*
G36*
X76555629Y-106166719D02*
G01*
X76631142Y-106174156D01*
X76776476Y-106218243D01*
X76776479Y-106218244D01*
X76910416Y-106289835D01*
X77027817Y-106386183D01*
X77124165Y-106503584D01*
X77195756Y-106637521D01*
X77195757Y-106637524D01*
X77239844Y-106782858D01*
X77254730Y-106934000D01*
X77239844Y-107085142D01*
X77195757Y-107230476D01*
X77195756Y-107230479D01*
X77124165Y-107364416D01*
X77027817Y-107481817D01*
X76910416Y-107578165D01*
X76776479Y-107649756D01*
X76776476Y-107649757D01*
X76631142Y-107693844D01*
X76555629Y-107701281D01*
X76517873Y-107705000D01*
X75882127Y-107705000D01*
X75844371Y-107701281D01*
X75768858Y-107693844D01*
X75623524Y-107649757D01*
X75623521Y-107649756D01*
X75489584Y-107578165D01*
X75372183Y-107481817D01*
X75275835Y-107364416D01*
X75204244Y-107230479D01*
X75204243Y-107230476D01*
X75160156Y-107085142D01*
X75145270Y-106934000D01*
X75160156Y-106782858D01*
X75204243Y-106637524D01*
X75204244Y-106637521D01*
X75275835Y-106503584D01*
X75372183Y-106386183D01*
X75489584Y-106289835D01*
X75623521Y-106218244D01*
X75623524Y-106218243D01*
X75768858Y-106174156D01*
X75844371Y-106166719D01*
X75882127Y-106163000D01*
X76517873Y-106163000D01*
X76555629Y-106166719D01*
G37*
G36*
X114655629Y-106166719D02*
G01*
X114731142Y-106174156D01*
X114876476Y-106218243D01*
X114876479Y-106218244D01*
X115010416Y-106289835D01*
X115127817Y-106386183D01*
X115224165Y-106503584D01*
X115295756Y-106637521D01*
X115295757Y-106637524D01*
X115339844Y-106782858D01*
X115354730Y-106934000D01*
X115339844Y-107085142D01*
X115295757Y-107230476D01*
X115295756Y-107230479D01*
X115224165Y-107364416D01*
X115127817Y-107481817D01*
X115010416Y-107578165D01*
X114876479Y-107649756D01*
X114876476Y-107649757D01*
X114731142Y-107693844D01*
X114655629Y-107701281D01*
X114617873Y-107705000D01*
X113982127Y-107705000D01*
X113944371Y-107701281D01*
X113868858Y-107693844D01*
X113723524Y-107649757D01*
X113723521Y-107649756D01*
X113589584Y-107578165D01*
X113472183Y-107481817D01*
X113375835Y-107364416D01*
X113304244Y-107230479D01*
X113304243Y-107230476D01*
X113260156Y-107085142D01*
X113245270Y-106934000D01*
X113260156Y-106782858D01*
X113304243Y-106637524D01*
X113304244Y-106637521D01*
X113375835Y-106503584D01*
X113472183Y-106386183D01*
X113589584Y-106289835D01*
X113723521Y-106218244D01*
X113723524Y-106218243D01*
X113868858Y-106174156D01*
X113944371Y-106166719D01*
X113982127Y-106163000D01*
X114617873Y-106163000D01*
X114655629Y-106166719D01*
G37*
G36*
X99415629Y-106166719D02*
G01*
X99491142Y-106174156D01*
X99636476Y-106218243D01*
X99636479Y-106218244D01*
X99770416Y-106289835D01*
X99887817Y-106386183D01*
X99984165Y-106503584D01*
X100055756Y-106637521D01*
X100055757Y-106637524D01*
X100099844Y-106782858D01*
X100114730Y-106934000D01*
X100099844Y-107085142D01*
X100055757Y-107230476D01*
X100055756Y-107230479D01*
X99984165Y-107364416D01*
X99887817Y-107481817D01*
X99770416Y-107578165D01*
X99636479Y-107649756D01*
X99636476Y-107649757D01*
X99491142Y-107693844D01*
X99415629Y-107701281D01*
X99377873Y-107705000D01*
X98742127Y-107705000D01*
X98704371Y-107701281D01*
X98628858Y-107693844D01*
X98483524Y-107649757D01*
X98483521Y-107649756D01*
X98349584Y-107578165D01*
X98232183Y-107481817D01*
X98135835Y-107364416D01*
X98064244Y-107230479D01*
X98064243Y-107230476D01*
X98020156Y-107085142D01*
X98005270Y-106934000D01*
X98020156Y-106782858D01*
X98064243Y-106637524D01*
X98064244Y-106637521D01*
X98135835Y-106503584D01*
X98232183Y-106386183D01*
X98349584Y-106289835D01*
X98483521Y-106218244D01*
X98483524Y-106218243D01*
X98628858Y-106174156D01*
X98704371Y-106166719D01*
X98742127Y-106163000D01*
X99377873Y-106163000D01*
X99415629Y-106166719D01*
G37*
G36*
X91795629Y-106166719D02*
G01*
X91871142Y-106174156D01*
X92016476Y-106218243D01*
X92016479Y-106218244D01*
X92150416Y-106289835D01*
X92267817Y-106386183D01*
X92364165Y-106503584D01*
X92435756Y-106637521D01*
X92435757Y-106637524D01*
X92479844Y-106782858D01*
X92494730Y-106934000D01*
X92479844Y-107085142D01*
X92435757Y-107230476D01*
X92435756Y-107230479D01*
X92364165Y-107364416D01*
X92267817Y-107481817D01*
X92150416Y-107578165D01*
X92016479Y-107649756D01*
X92016476Y-107649757D01*
X91871142Y-107693844D01*
X91795629Y-107701281D01*
X91757873Y-107705000D01*
X91122127Y-107705000D01*
X91084371Y-107701281D01*
X91008858Y-107693844D01*
X90863524Y-107649757D01*
X90863521Y-107649756D01*
X90729584Y-107578165D01*
X90612183Y-107481817D01*
X90515835Y-107364416D01*
X90444244Y-107230479D01*
X90444243Y-107230476D01*
X90400156Y-107085142D01*
X90385270Y-106934000D01*
X90400156Y-106782858D01*
X90444243Y-106637524D01*
X90444244Y-106637521D01*
X90515835Y-106503584D01*
X90612183Y-106386183D01*
X90729584Y-106289835D01*
X90863521Y-106218244D01*
X90863524Y-106218243D01*
X91008858Y-106174156D01*
X91084371Y-106166719D01*
X91122127Y-106163000D01*
X91757873Y-106163000D01*
X91795629Y-106166719D01*
G37*
G36*
X76555629Y-103626719D02*
G01*
X76631142Y-103634156D01*
X76776476Y-103678243D01*
X76776479Y-103678244D01*
X76910416Y-103749835D01*
X77027817Y-103846183D01*
X77124165Y-103963584D01*
X77195756Y-104097521D01*
X77195757Y-104097524D01*
X77239844Y-104242858D01*
X77254730Y-104394000D01*
X77239844Y-104545142D01*
X77195757Y-104690476D01*
X77195756Y-104690479D01*
X77124165Y-104824416D01*
X77027817Y-104941817D01*
X76910416Y-105038165D01*
X76776479Y-105109756D01*
X76776476Y-105109757D01*
X76631142Y-105153844D01*
X76555629Y-105161281D01*
X76517873Y-105165000D01*
X75882127Y-105165000D01*
X75844371Y-105161281D01*
X75768858Y-105153844D01*
X75623524Y-105109757D01*
X75623521Y-105109756D01*
X75489584Y-105038165D01*
X75372183Y-104941817D01*
X75275835Y-104824416D01*
X75204244Y-104690479D01*
X75204243Y-104690476D01*
X75160156Y-104545142D01*
X75145270Y-104394000D01*
X75160156Y-104242858D01*
X75204243Y-104097524D01*
X75204244Y-104097521D01*
X75275835Y-103963584D01*
X75372183Y-103846183D01*
X75489584Y-103749835D01*
X75623521Y-103678244D01*
X75623524Y-103678243D01*
X75768858Y-103634156D01*
X75844371Y-103626719D01*
X75882127Y-103623000D01*
X76517873Y-103623000D01*
X76555629Y-103626719D01*
G37*
G36*
X99415629Y-103626719D02*
G01*
X99491142Y-103634156D01*
X99636476Y-103678243D01*
X99636479Y-103678244D01*
X99770416Y-103749835D01*
X99887817Y-103846183D01*
X99984165Y-103963584D01*
X100055756Y-104097521D01*
X100055757Y-104097524D01*
X100099844Y-104242858D01*
X100114730Y-104394000D01*
X100099844Y-104545142D01*
X100055757Y-104690476D01*
X100055756Y-104690479D01*
X99984165Y-104824416D01*
X99887817Y-104941817D01*
X99770416Y-105038165D01*
X99636479Y-105109756D01*
X99636476Y-105109757D01*
X99491142Y-105153844D01*
X99415629Y-105161281D01*
X99377873Y-105165000D01*
X98742127Y-105165000D01*
X98704371Y-105161281D01*
X98628858Y-105153844D01*
X98483524Y-105109757D01*
X98483521Y-105109756D01*
X98349584Y-105038165D01*
X98232183Y-104941817D01*
X98135835Y-104824416D01*
X98064244Y-104690479D01*
X98064243Y-104690476D01*
X98020156Y-104545142D01*
X98005270Y-104394000D01*
X98020156Y-104242858D01*
X98064243Y-104097524D01*
X98064244Y-104097521D01*
X98135835Y-103963584D01*
X98232183Y-103846183D01*
X98349584Y-103749835D01*
X98483521Y-103678244D01*
X98483524Y-103678243D01*
X98628858Y-103634156D01*
X98704371Y-103626719D01*
X98742127Y-103623000D01*
X99377873Y-103623000D01*
X99415629Y-103626719D01*
G37*
G36*
X91795629Y-103626719D02*
G01*
X91871142Y-103634156D01*
X92016476Y-103678243D01*
X92016479Y-103678244D01*
X92150416Y-103749835D01*
X92267817Y-103846183D01*
X92364165Y-103963584D01*
X92435756Y-104097521D01*
X92435757Y-104097524D01*
X92479844Y-104242858D01*
X92494730Y-104394000D01*
X92479844Y-104545142D01*
X92435757Y-104690476D01*
X92435756Y-104690479D01*
X92364165Y-104824416D01*
X92267817Y-104941817D01*
X92150416Y-105038165D01*
X92016479Y-105109756D01*
X92016476Y-105109757D01*
X91871142Y-105153844D01*
X91795629Y-105161281D01*
X91757873Y-105165000D01*
X91122127Y-105165000D01*
X91084371Y-105161281D01*
X91008858Y-105153844D01*
X90863524Y-105109757D01*
X90863521Y-105109756D01*
X90729584Y-105038165D01*
X90612183Y-104941817D01*
X90515835Y-104824416D01*
X90444244Y-104690479D01*
X90444243Y-104690476D01*
X90400156Y-104545142D01*
X90385270Y-104394000D01*
X90400156Y-104242858D01*
X90444243Y-104097524D01*
X90444244Y-104097521D01*
X90515835Y-103963584D01*
X90612183Y-103846183D01*
X90729584Y-103749835D01*
X90863521Y-103678244D01*
X90863524Y-103678243D01*
X91008858Y-103634156D01*
X91084371Y-103626719D01*
X91122127Y-103623000D01*
X91757873Y-103623000D01*
X91795629Y-103626719D01*
G37*
G36*
X114655629Y-103626719D02*
G01*
X114731142Y-103634156D01*
X114876476Y-103678243D01*
X114876479Y-103678244D01*
X115010416Y-103749835D01*
X115127817Y-103846183D01*
X115224165Y-103963584D01*
X115295756Y-104097521D01*
X115295757Y-104097524D01*
X115339844Y-104242858D01*
X115354730Y-104394000D01*
X115339844Y-104545142D01*
X115295757Y-104690476D01*
X115295756Y-104690479D01*
X115224165Y-104824416D01*
X115127817Y-104941817D01*
X115010416Y-105038165D01*
X114876479Y-105109756D01*
X114876476Y-105109757D01*
X114731142Y-105153844D01*
X114655629Y-105161281D01*
X114617873Y-105165000D01*
X113982127Y-105165000D01*
X113944371Y-105161281D01*
X113868858Y-105153844D01*
X113723524Y-105109757D01*
X113723521Y-105109756D01*
X113589584Y-105038165D01*
X113472183Y-104941817D01*
X113375835Y-104824416D01*
X113304244Y-104690479D01*
X113304243Y-104690476D01*
X113260156Y-104545142D01*
X113245270Y-104394000D01*
X113260156Y-104242858D01*
X113304243Y-104097524D01*
X113304244Y-104097521D01*
X113375835Y-103963584D01*
X113472183Y-103846183D01*
X113589584Y-103749835D01*
X113723521Y-103678244D01*
X113723524Y-103678243D01*
X113868858Y-103634156D01*
X113944371Y-103626719D01*
X113982127Y-103623000D01*
X114617873Y-103623000D01*
X114655629Y-103626719D01*
G37*
G36*
X76555629Y-101086719D02*
G01*
X76631142Y-101094156D01*
X76776476Y-101138243D01*
X76776479Y-101138244D01*
X76910416Y-101209835D01*
X77027817Y-101306183D01*
X77124165Y-101423584D01*
X77195756Y-101557521D01*
X77195757Y-101557524D01*
X77239844Y-101702858D01*
X77254730Y-101854000D01*
X77239844Y-102005142D01*
X77195757Y-102150476D01*
X77195756Y-102150479D01*
X77124165Y-102284416D01*
X77027817Y-102401817D01*
X76910416Y-102498165D01*
X76776479Y-102569756D01*
X76776476Y-102569757D01*
X76631142Y-102613844D01*
X76555629Y-102621281D01*
X76517873Y-102625000D01*
X75882127Y-102625000D01*
X75844371Y-102621281D01*
X75768858Y-102613844D01*
X75623524Y-102569757D01*
X75623521Y-102569756D01*
X75489584Y-102498165D01*
X75372183Y-102401817D01*
X75275835Y-102284416D01*
X75204244Y-102150479D01*
X75204243Y-102150476D01*
X75160156Y-102005142D01*
X75145270Y-101854000D01*
X75160156Y-101702858D01*
X75204243Y-101557524D01*
X75204244Y-101557521D01*
X75275835Y-101423584D01*
X75372183Y-101306183D01*
X75489584Y-101209835D01*
X75623521Y-101138244D01*
X75623524Y-101138243D01*
X75768858Y-101094156D01*
X75844371Y-101086719D01*
X75882127Y-101083000D01*
X76517873Y-101083000D01*
X76555629Y-101086719D01*
G37*
G36*
X114655629Y-101086719D02*
G01*
X114731142Y-101094156D01*
X114876476Y-101138243D01*
X114876479Y-101138244D01*
X115010416Y-101209835D01*
X115127817Y-101306183D01*
X115224165Y-101423584D01*
X115295756Y-101557521D01*
X115295757Y-101557524D01*
X115339844Y-101702858D01*
X115354730Y-101854000D01*
X115339844Y-102005142D01*
X115295757Y-102150476D01*
X115295756Y-102150479D01*
X115224165Y-102284416D01*
X115127817Y-102401817D01*
X115010416Y-102498165D01*
X114876479Y-102569756D01*
X114876476Y-102569757D01*
X114731142Y-102613844D01*
X114655629Y-102621281D01*
X114617873Y-102625000D01*
X113982127Y-102625000D01*
X113944371Y-102621281D01*
X113868858Y-102613844D01*
X113723524Y-102569757D01*
X113723521Y-102569756D01*
X113589584Y-102498165D01*
X113472183Y-102401817D01*
X113375835Y-102284416D01*
X113304244Y-102150479D01*
X113304243Y-102150476D01*
X113260156Y-102005142D01*
X113245270Y-101854000D01*
X113260156Y-101702858D01*
X113304243Y-101557524D01*
X113304244Y-101557521D01*
X113375835Y-101423584D01*
X113472183Y-101306183D01*
X113589584Y-101209835D01*
X113723521Y-101138244D01*
X113723524Y-101138243D01*
X113868858Y-101094156D01*
X113944371Y-101086719D01*
X113982127Y-101083000D01*
X114617873Y-101083000D01*
X114655629Y-101086719D01*
G37*
G36*
X99415629Y-101086719D02*
G01*
X99491142Y-101094156D01*
X99636476Y-101138243D01*
X99636479Y-101138244D01*
X99770416Y-101209835D01*
X99887817Y-101306183D01*
X99984165Y-101423584D01*
X100055756Y-101557521D01*
X100055757Y-101557524D01*
X100099844Y-101702858D01*
X100114730Y-101854000D01*
X100099844Y-102005142D01*
X100055757Y-102150476D01*
X100055756Y-102150479D01*
X99984165Y-102284416D01*
X99887817Y-102401817D01*
X99770416Y-102498165D01*
X99636479Y-102569756D01*
X99636476Y-102569757D01*
X99491142Y-102613844D01*
X99415629Y-102621281D01*
X99377873Y-102625000D01*
X98742127Y-102625000D01*
X98704371Y-102621281D01*
X98628858Y-102613844D01*
X98483524Y-102569757D01*
X98483521Y-102569756D01*
X98349584Y-102498165D01*
X98232183Y-102401817D01*
X98135835Y-102284416D01*
X98064244Y-102150479D01*
X98064243Y-102150476D01*
X98020156Y-102005142D01*
X98005270Y-101854000D01*
X98020156Y-101702858D01*
X98064243Y-101557524D01*
X98064244Y-101557521D01*
X98135835Y-101423584D01*
X98232183Y-101306183D01*
X98349584Y-101209835D01*
X98483521Y-101138244D01*
X98483524Y-101138243D01*
X98628858Y-101094156D01*
X98704371Y-101086719D01*
X98742127Y-101083000D01*
X99377873Y-101083000D01*
X99415629Y-101086719D01*
G37*
G36*
X91795629Y-101086719D02*
G01*
X91871142Y-101094156D01*
X92016476Y-101138243D01*
X92016479Y-101138244D01*
X92150416Y-101209835D01*
X92267817Y-101306183D01*
X92364165Y-101423584D01*
X92435756Y-101557521D01*
X92435757Y-101557524D01*
X92479844Y-101702858D01*
X92494730Y-101854000D01*
X92479844Y-102005142D01*
X92435757Y-102150476D01*
X92435756Y-102150479D01*
X92364165Y-102284416D01*
X92267817Y-102401817D01*
X92150416Y-102498165D01*
X92016479Y-102569756D01*
X92016476Y-102569757D01*
X91871142Y-102613844D01*
X91795629Y-102621281D01*
X91757873Y-102625000D01*
X91122127Y-102625000D01*
X91084371Y-102621281D01*
X91008858Y-102613844D01*
X90863524Y-102569757D01*
X90863521Y-102569756D01*
X90729584Y-102498165D01*
X90612183Y-102401817D01*
X90515835Y-102284416D01*
X90444244Y-102150479D01*
X90444243Y-102150476D01*
X90400156Y-102005142D01*
X90385270Y-101854000D01*
X90400156Y-101702858D01*
X90444243Y-101557524D01*
X90444244Y-101557521D01*
X90515835Y-101423584D01*
X90612183Y-101306183D01*
X90729584Y-101209835D01*
X90863521Y-101138244D01*
X90863524Y-101138243D01*
X91008858Y-101094156D01*
X91084371Y-101086719D01*
X91122127Y-101083000D01*
X91757873Y-101083000D01*
X91795629Y-101086719D01*
G37*
G36*
X78988228Y-98495703D02*
G01*
X79143100Y-98559853D01*
X79282481Y-98652985D01*
X79401015Y-98771519D01*
X79494147Y-98910900D01*
X79558297Y-99065772D01*
X79591000Y-99230184D01*
X79591000Y-99397816D01*
X79558297Y-99562228D01*
X79494147Y-99717100D01*
X79401015Y-99856481D01*
X79282481Y-99975015D01*
X79143100Y-100068147D01*
X78988228Y-100132297D01*
X78823816Y-100165000D01*
X78656184Y-100165000D01*
X78491772Y-100132297D01*
X78336900Y-100068147D01*
X78197519Y-99975015D01*
X78078985Y-99856481D01*
X77985853Y-99717100D01*
X77921703Y-99562228D01*
X77889000Y-99397816D01*
X77889000Y-99230184D01*
X77921703Y-99065772D01*
X77985853Y-98910900D01*
X78078985Y-98771519D01*
X78197519Y-98652985D01*
X78336900Y-98559853D01*
X78491772Y-98495703D01*
X78656184Y-98463000D01*
X78823816Y-98463000D01*
X78988228Y-98495703D01*
G37*
G36*
X96768228Y-98495703D02*
G01*
X96923100Y-98559853D01*
X97062481Y-98652985D01*
X97181015Y-98771519D01*
X97274147Y-98910900D01*
X97338297Y-99065772D01*
X97371000Y-99230184D01*
X97371000Y-99397816D01*
X97338297Y-99562228D01*
X97274147Y-99717100D01*
X97181015Y-99856481D01*
X97062481Y-99975015D01*
X96923100Y-100068147D01*
X96768228Y-100132297D01*
X96603816Y-100165000D01*
X96436184Y-100165000D01*
X96271772Y-100132297D01*
X96116900Y-100068147D01*
X95977519Y-99975015D01*
X95858985Y-99856481D01*
X95765853Y-99717100D01*
X95701703Y-99562228D01*
X95669000Y-99397816D01*
X95669000Y-99230184D01*
X95701703Y-99065772D01*
X95765853Y-98910900D01*
X95858985Y-98771519D01*
X95977519Y-98652985D01*
X96116900Y-98559853D01*
X96271772Y-98495703D01*
X96436184Y-98463000D01*
X96603816Y-98463000D01*
X96768228Y-98495703D01*
G37*
G36*
X112008228Y-98495703D02*
G01*
X112163100Y-98559853D01*
X112302481Y-98652985D01*
X112421015Y-98771519D01*
X112514147Y-98910900D01*
X112578297Y-99065772D01*
X112611000Y-99230184D01*
X112611000Y-99397816D01*
X112578297Y-99562228D01*
X112514147Y-99717100D01*
X112421015Y-99856481D01*
X112302481Y-99975015D01*
X112163100Y-100068147D01*
X112008228Y-100132297D01*
X111843816Y-100165000D01*
X111676184Y-100165000D01*
X111511772Y-100132297D01*
X111356900Y-100068147D01*
X111217519Y-99975015D01*
X111098985Y-99856481D01*
X111005853Y-99717100D01*
X110941703Y-99562228D01*
X110909000Y-99397816D01*
X110909000Y-99230184D01*
X110941703Y-99065772D01*
X111005853Y-98910900D01*
X111098985Y-98771519D01*
X111217519Y-98652985D01*
X111356900Y-98559853D01*
X111511772Y-98495703D01*
X111676184Y-98463000D01*
X111843816Y-98463000D01*
X112008228Y-98495703D01*
G37*
G36*
X94228228Y-98495703D02*
G01*
X94383100Y-98559853D01*
X94522481Y-98652985D01*
X94641015Y-98771519D01*
X94734147Y-98910900D01*
X94798297Y-99065772D01*
X94831000Y-99230184D01*
X94831000Y-99397816D01*
X94798297Y-99562228D01*
X94734147Y-99717100D01*
X94641015Y-99856481D01*
X94522481Y-99975015D01*
X94383100Y-100068147D01*
X94228228Y-100132297D01*
X94063816Y-100165000D01*
X93896184Y-100165000D01*
X93731772Y-100132297D01*
X93576900Y-100068147D01*
X93437519Y-99975015D01*
X93318985Y-99856481D01*
X93225853Y-99717100D01*
X93161703Y-99562228D01*
X93129000Y-99397816D01*
X93129000Y-99230184D01*
X93161703Y-99065772D01*
X93225853Y-98910900D01*
X93318985Y-98771519D01*
X93437519Y-98652985D01*
X93576900Y-98559853D01*
X93731772Y-98495703D01*
X93896184Y-98463000D01*
X94063816Y-98463000D01*
X94228228Y-98495703D01*
G37*
G36*
X76555629Y-98546719D02*
G01*
X76631142Y-98554156D01*
X76776476Y-98598243D01*
X76776479Y-98598244D01*
X76910416Y-98669835D01*
X77027817Y-98766183D01*
X77124165Y-98883584D01*
X77195756Y-99017521D01*
X77195757Y-99017524D01*
X77239844Y-99162858D01*
X77254730Y-99314000D01*
X77239844Y-99465142D01*
X77195757Y-99610476D01*
X77195756Y-99610479D01*
X77124165Y-99744416D01*
X77027817Y-99861817D01*
X76910416Y-99958165D01*
X76776479Y-100029756D01*
X76776476Y-100029757D01*
X76631142Y-100073844D01*
X76555629Y-100081281D01*
X76517873Y-100085000D01*
X75882127Y-100085000D01*
X75844371Y-100081281D01*
X75768858Y-100073844D01*
X75623524Y-100029757D01*
X75623521Y-100029756D01*
X75489584Y-99958165D01*
X75372183Y-99861817D01*
X75275835Y-99744416D01*
X75204244Y-99610479D01*
X75204243Y-99610476D01*
X75160156Y-99465142D01*
X75145270Y-99314000D01*
X75160156Y-99162858D01*
X75204243Y-99017524D01*
X75204244Y-99017521D01*
X75275835Y-98883584D01*
X75372183Y-98766183D01*
X75489584Y-98669835D01*
X75623521Y-98598244D01*
X75623524Y-98598243D01*
X75768858Y-98554156D01*
X75844371Y-98546719D01*
X75882127Y-98543000D01*
X76517873Y-98543000D01*
X76555629Y-98546719D01*
G37*
G36*
X114655629Y-98546719D02*
G01*
X114731142Y-98554156D01*
X114876476Y-98598243D01*
X114876479Y-98598244D01*
X115010416Y-98669835D01*
X115127817Y-98766183D01*
X115224165Y-98883584D01*
X115295756Y-99017521D01*
X115295757Y-99017524D01*
X115339844Y-99162858D01*
X115354730Y-99314000D01*
X115339844Y-99465142D01*
X115295757Y-99610476D01*
X115295756Y-99610479D01*
X115224165Y-99744416D01*
X115127817Y-99861817D01*
X115010416Y-99958165D01*
X114876479Y-100029756D01*
X114876476Y-100029757D01*
X114731142Y-100073844D01*
X114655629Y-100081281D01*
X114617873Y-100085000D01*
X113982127Y-100085000D01*
X113944371Y-100081281D01*
X113868858Y-100073844D01*
X113723524Y-100029757D01*
X113723521Y-100029756D01*
X113589584Y-99958165D01*
X113472183Y-99861817D01*
X113375835Y-99744416D01*
X113304244Y-99610479D01*
X113304243Y-99610476D01*
X113260156Y-99465142D01*
X113245270Y-99314000D01*
X113260156Y-99162858D01*
X113304243Y-99017524D01*
X113304244Y-99017521D01*
X113375835Y-98883584D01*
X113472183Y-98766183D01*
X113589584Y-98669835D01*
X113723521Y-98598244D01*
X113723524Y-98598243D01*
X113868858Y-98554156D01*
X113944371Y-98546719D01*
X113982127Y-98543000D01*
X114617873Y-98543000D01*
X114655629Y-98546719D01*
G37*
G36*
X91795629Y-98546719D02*
G01*
X91871142Y-98554156D01*
X92016476Y-98598243D01*
X92016479Y-98598244D01*
X92150416Y-98669835D01*
X92267817Y-98766183D01*
X92364165Y-98883584D01*
X92435756Y-99017521D01*
X92435757Y-99017524D01*
X92479844Y-99162858D01*
X92494730Y-99314000D01*
X92479844Y-99465142D01*
X92435757Y-99610476D01*
X92435756Y-99610479D01*
X92364165Y-99744416D01*
X92267817Y-99861817D01*
X92150416Y-99958165D01*
X92016479Y-100029756D01*
X92016476Y-100029757D01*
X91871142Y-100073844D01*
X91795629Y-100081281D01*
X91757873Y-100085000D01*
X91122127Y-100085000D01*
X91084371Y-100081281D01*
X91008858Y-100073844D01*
X90863524Y-100029757D01*
X90863521Y-100029756D01*
X90729584Y-99958165D01*
X90612183Y-99861817D01*
X90515835Y-99744416D01*
X90444244Y-99610479D01*
X90444243Y-99610476D01*
X90400156Y-99465142D01*
X90385270Y-99314000D01*
X90400156Y-99162858D01*
X90444243Y-99017524D01*
X90444244Y-99017521D01*
X90515835Y-98883584D01*
X90612183Y-98766183D01*
X90729584Y-98669835D01*
X90863521Y-98598244D01*
X90863524Y-98598243D01*
X91008858Y-98554156D01*
X91084371Y-98546719D01*
X91122127Y-98543000D01*
X91757873Y-98543000D01*
X91795629Y-98546719D01*
G37*
G36*
X99415629Y-98546719D02*
G01*
X99491142Y-98554156D01*
X99636476Y-98598243D01*
X99636479Y-98598244D01*
X99770416Y-98669835D01*
X99887817Y-98766183D01*
X99984165Y-98883584D01*
X100055756Y-99017521D01*
X100055757Y-99017524D01*
X100099844Y-99162858D01*
X100114730Y-99314000D01*
X100099844Y-99465142D01*
X100055757Y-99610476D01*
X100055756Y-99610479D01*
X99984165Y-99744416D01*
X99887817Y-99861817D01*
X99770416Y-99958165D01*
X99636479Y-100029756D01*
X99636476Y-100029757D01*
X99491142Y-100073844D01*
X99415629Y-100081281D01*
X99377873Y-100085000D01*
X98742127Y-100085000D01*
X98704371Y-100081281D01*
X98628858Y-100073844D01*
X98483524Y-100029757D01*
X98483521Y-100029756D01*
X98349584Y-99958165D01*
X98232183Y-99861817D01*
X98135835Y-99744416D01*
X98064244Y-99610479D01*
X98064243Y-99610476D01*
X98020156Y-99465142D01*
X98005270Y-99314000D01*
X98020156Y-99162858D01*
X98064243Y-99017524D01*
X98064244Y-99017521D01*
X98135835Y-98883584D01*
X98232183Y-98766183D01*
X98349584Y-98669835D01*
X98483521Y-98598244D01*
X98483524Y-98598243D01*
X98628858Y-98554156D01*
X98704371Y-98546719D01*
X98742127Y-98543000D01*
X99377873Y-98543000D01*
X99415629Y-98546719D01*
G37*
G36*
X112008228Y-95955703D02*
G01*
X112163100Y-96019853D01*
X112302481Y-96112985D01*
X112421015Y-96231519D01*
X112514147Y-96370900D01*
X112578297Y-96525772D01*
X112611000Y-96690184D01*
X112611000Y-96857816D01*
X112578297Y-97022228D01*
X112514147Y-97177100D01*
X112421015Y-97316481D01*
X112302481Y-97435015D01*
X112163100Y-97528147D01*
X112008228Y-97592297D01*
X111843816Y-97625000D01*
X111676184Y-97625000D01*
X111511772Y-97592297D01*
X111356900Y-97528147D01*
X111217519Y-97435015D01*
X111098985Y-97316481D01*
X111005853Y-97177100D01*
X110941703Y-97022228D01*
X110909000Y-96857816D01*
X110909000Y-96690184D01*
X110941703Y-96525772D01*
X111005853Y-96370900D01*
X111098985Y-96231519D01*
X111217519Y-96112985D01*
X111356900Y-96019853D01*
X111511772Y-95955703D01*
X111676184Y-95923000D01*
X111843816Y-95923000D01*
X112008228Y-95955703D01*
G37*
G36*
X96768228Y-95955703D02*
G01*
X96923100Y-96019853D01*
X97062481Y-96112985D01*
X97181015Y-96231519D01*
X97274147Y-96370900D01*
X97338297Y-96525772D01*
X97371000Y-96690184D01*
X97371000Y-96857816D01*
X97338297Y-97022228D01*
X97274147Y-97177100D01*
X97181015Y-97316481D01*
X97062481Y-97435015D01*
X96923100Y-97528147D01*
X96768228Y-97592297D01*
X96603816Y-97625000D01*
X96436184Y-97625000D01*
X96271772Y-97592297D01*
X96116900Y-97528147D01*
X95977519Y-97435015D01*
X95858985Y-97316481D01*
X95765853Y-97177100D01*
X95701703Y-97022228D01*
X95669000Y-96857816D01*
X95669000Y-96690184D01*
X95701703Y-96525772D01*
X95765853Y-96370900D01*
X95858985Y-96231519D01*
X95977519Y-96112985D01*
X96116900Y-96019853D01*
X96271772Y-95955703D01*
X96436184Y-95923000D01*
X96603816Y-95923000D01*
X96768228Y-95955703D01*
G37*
G36*
X94228228Y-95955703D02*
G01*
X94383100Y-96019853D01*
X94522481Y-96112985D01*
X94641015Y-96231519D01*
X94734147Y-96370900D01*
X94798297Y-96525772D01*
X94831000Y-96690184D01*
X94831000Y-96857816D01*
X94798297Y-97022228D01*
X94734147Y-97177100D01*
X94641015Y-97316481D01*
X94522481Y-97435015D01*
X94383100Y-97528147D01*
X94228228Y-97592297D01*
X94063816Y-97625000D01*
X93896184Y-97625000D01*
X93731772Y-97592297D01*
X93576900Y-97528147D01*
X93437519Y-97435015D01*
X93318985Y-97316481D01*
X93225853Y-97177100D01*
X93161703Y-97022228D01*
X93129000Y-96857816D01*
X93129000Y-96690184D01*
X93161703Y-96525772D01*
X93225853Y-96370900D01*
X93318985Y-96231519D01*
X93437519Y-96112985D01*
X93576900Y-96019853D01*
X93731772Y-95955703D01*
X93896184Y-95923000D01*
X94063816Y-95923000D01*
X94228228Y-95955703D01*
G37*
G36*
X78988228Y-95955703D02*
G01*
X79143100Y-96019853D01*
X79282481Y-96112985D01*
X79401015Y-96231519D01*
X79494147Y-96370900D01*
X79558297Y-96525772D01*
X79591000Y-96690184D01*
X79591000Y-96857816D01*
X79558297Y-97022228D01*
X79494147Y-97177100D01*
X79401015Y-97316481D01*
X79282481Y-97435015D01*
X79143100Y-97528147D01*
X78988228Y-97592297D01*
X78823816Y-97625000D01*
X78656184Y-97625000D01*
X78491772Y-97592297D01*
X78336900Y-97528147D01*
X78197519Y-97435015D01*
X78078985Y-97316481D01*
X77985853Y-97177100D01*
X77921703Y-97022228D01*
X77889000Y-96857816D01*
X77889000Y-96690184D01*
X77921703Y-96525772D01*
X77985853Y-96370900D01*
X78078985Y-96231519D01*
X78197519Y-96112985D01*
X78336900Y-96019853D01*
X78491772Y-95955703D01*
X78656184Y-95923000D01*
X78823816Y-95923000D01*
X78988228Y-95955703D01*
G37*
G36*
X114655629Y-96006719D02*
G01*
X114731142Y-96014156D01*
X114876476Y-96058243D01*
X114876479Y-96058244D01*
X115010416Y-96129835D01*
X115127817Y-96226183D01*
X115224165Y-96343584D01*
X115295756Y-96477521D01*
X115295757Y-96477524D01*
X115339844Y-96622858D01*
X115354730Y-96774000D01*
X115339844Y-96925142D01*
X115295757Y-97070476D01*
X115295756Y-97070479D01*
X115224165Y-97204416D01*
X115127817Y-97321817D01*
X115010416Y-97418165D01*
X114876479Y-97489756D01*
X114876476Y-97489757D01*
X114731142Y-97533844D01*
X114655629Y-97541281D01*
X114617873Y-97545000D01*
X113982127Y-97545000D01*
X113944371Y-97541281D01*
X113868858Y-97533844D01*
X113723524Y-97489757D01*
X113723521Y-97489756D01*
X113589584Y-97418165D01*
X113472183Y-97321817D01*
X113375835Y-97204416D01*
X113304244Y-97070479D01*
X113304243Y-97070476D01*
X113260156Y-96925142D01*
X113245270Y-96774000D01*
X113260156Y-96622858D01*
X113304243Y-96477524D01*
X113304244Y-96477521D01*
X113375835Y-96343584D01*
X113472183Y-96226183D01*
X113589584Y-96129835D01*
X113723521Y-96058244D01*
X113723524Y-96058243D01*
X113868858Y-96014156D01*
X113944371Y-96006719D01*
X113982127Y-96003000D01*
X114617873Y-96003000D01*
X114655629Y-96006719D01*
G37*
G36*
X99415629Y-96006719D02*
G01*
X99491142Y-96014156D01*
X99636476Y-96058243D01*
X99636479Y-96058244D01*
X99770416Y-96129835D01*
X99887817Y-96226183D01*
X99984165Y-96343584D01*
X100055756Y-96477521D01*
X100055757Y-96477524D01*
X100099844Y-96622858D01*
X100114730Y-96774000D01*
X100099844Y-96925142D01*
X100055757Y-97070476D01*
X100055756Y-97070479D01*
X99984165Y-97204416D01*
X99887817Y-97321817D01*
X99770416Y-97418165D01*
X99636479Y-97489756D01*
X99636476Y-97489757D01*
X99491142Y-97533844D01*
X99415629Y-97541281D01*
X99377873Y-97545000D01*
X98742127Y-97545000D01*
X98704371Y-97541281D01*
X98628858Y-97533844D01*
X98483524Y-97489757D01*
X98483521Y-97489756D01*
X98349584Y-97418165D01*
X98232183Y-97321817D01*
X98135835Y-97204416D01*
X98064244Y-97070479D01*
X98064243Y-97070476D01*
X98020156Y-96925142D01*
X98005270Y-96774000D01*
X98020156Y-96622858D01*
X98064243Y-96477524D01*
X98064244Y-96477521D01*
X98135835Y-96343584D01*
X98232183Y-96226183D01*
X98349584Y-96129835D01*
X98483521Y-96058244D01*
X98483524Y-96058243D01*
X98628858Y-96014156D01*
X98704371Y-96006719D01*
X98742127Y-96003000D01*
X99377873Y-96003000D01*
X99415629Y-96006719D01*
G37*
G36*
X91795629Y-96006719D02*
G01*
X91871142Y-96014156D01*
X92016476Y-96058243D01*
X92016479Y-96058244D01*
X92150416Y-96129835D01*
X92267817Y-96226183D01*
X92364165Y-96343584D01*
X92435756Y-96477521D01*
X92435757Y-96477524D01*
X92479844Y-96622858D01*
X92494730Y-96774000D01*
X92479844Y-96925142D01*
X92435757Y-97070476D01*
X92435756Y-97070479D01*
X92364165Y-97204416D01*
X92267817Y-97321817D01*
X92150416Y-97418165D01*
X92016479Y-97489756D01*
X92016476Y-97489757D01*
X91871142Y-97533844D01*
X91795629Y-97541281D01*
X91757873Y-97545000D01*
X91122127Y-97545000D01*
X91084371Y-97541281D01*
X91008858Y-97533844D01*
X90863524Y-97489757D01*
X90863521Y-97489756D01*
X90729584Y-97418165D01*
X90612183Y-97321817D01*
X90515835Y-97204416D01*
X90444244Y-97070479D01*
X90444243Y-97070476D01*
X90400156Y-96925142D01*
X90385270Y-96774000D01*
X90400156Y-96622858D01*
X90444243Y-96477524D01*
X90444244Y-96477521D01*
X90515835Y-96343584D01*
X90612183Y-96226183D01*
X90729584Y-96129835D01*
X90863521Y-96058244D01*
X90863524Y-96058243D01*
X91008858Y-96014156D01*
X91084371Y-96006719D01*
X91122127Y-96003000D01*
X91757873Y-96003000D01*
X91795629Y-96006719D01*
G37*
G36*
X76555629Y-96006719D02*
G01*
X76631142Y-96014156D01*
X76776476Y-96058243D01*
X76776479Y-96058244D01*
X76910416Y-96129835D01*
X77027817Y-96226183D01*
X77124165Y-96343584D01*
X77195756Y-96477521D01*
X77195757Y-96477524D01*
X77239844Y-96622858D01*
X77254730Y-96774000D01*
X77239844Y-96925142D01*
X77195757Y-97070476D01*
X77195756Y-97070479D01*
X77124165Y-97204416D01*
X77027817Y-97321817D01*
X76910416Y-97418165D01*
X76776479Y-97489756D01*
X76776476Y-97489757D01*
X76631142Y-97533844D01*
X76555629Y-97541281D01*
X76517873Y-97545000D01*
X75882127Y-97545000D01*
X75844371Y-97541281D01*
X75768858Y-97533844D01*
X75623524Y-97489757D01*
X75623521Y-97489756D01*
X75489584Y-97418165D01*
X75372183Y-97321817D01*
X75275835Y-97204416D01*
X75204244Y-97070479D01*
X75204243Y-97070476D01*
X75160156Y-96925142D01*
X75145270Y-96774000D01*
X75160156Y-96622858D01*
X75204243Y-96477524D01*
X75204244Y-96477521D01*
X75275835Y-96343584D01*
X75372183Y-96226183D01*
X75489584Y-96129835D01*
X75623521Y-96058244D01*
X75623524Y-96058243D01*
X75768858Y-96014156D01*
X75844371Y-96006719D01*
X75882127Y-96003000D01*
X76517873Y-96003000D01*
X76555629Y-96006719D01*
G37*
G36*
X112008228Y-93415703D02*
G01*
X112163100Y-93479853D01*
X112302481Y-93572985D01*
X112421015Y-93691519D01*
X112514147Y-93830900D01*
X112578297Y-93985772D01*
X112611000Y-94150184D01*
X112611000Y-94317816D01*
X112578297Y-94482228D01*
X112514147Y-94637100D01*
X112421015Y-94776481D01*
X112302481Y-94895015D01*
X112163100Y-94988147D01*
X112008228Y-95052297D01*
X111843816Y-95085000D01*
X111676184Y-95085000D01*
X111511772Y-95052297D01*
X111356900Y-94988147D01*
X111217519Y-94895015D01*
X111098985Y-94776481D01*
X111005853Y-94637100D01*
X110941703Y-94482228D01*
X110909000Y-94317816D01*
X110909000Y-94150184D01*
X110941703Y-93985772D01*
X111005853Y-93830900D01*
X111098985Y-93691519D01*
X111217519Y-93572985D01*
X111356900Y-93479853D01*
X111511772Y-93415703D01*
X111676184Y-93383000D01*
X111843816Y-93383000D01*
X112008228Y-93415703D01*
G37*
G36*
X96768228Y-93415703D02*
G01*
X96923100Y-93479853D01*
X97062481Y-93572985D01*
X97181015Y-93691519D01*
X97274147Y-93830900D01*
X97338297Y-93985772D01*
X97371000Y-94150184D01*
X97371000Y-94317816D01*
X97338297Y-94482228D01*
X97274147Y-94637100D01*
X97181015Y-94776481D01*
X97062481Y-94895015D01*
X96923100Y-94988147D01*
X96768228Y-95052297D01*
X96603816Y-95085000D01*
X96436184Y-95085000D01*
X96271772Y-95052297D01*
X96116900Y-94988147D01*
X95977519Y-94895015D01*
X95858985Y-94776481D01*
X95765853Y-94637100D01*
X95701703Y-94482228D01*
X95669000Y-94317816D01*
X95669000Y-94150184D01*
X95701703Y-93985772D01*
X95765853Y-93830900D01*
X95858985Y-93691519D01*
X95977519Y-93572985D01*
X96116900Y-93479853D01*
X96271772Y-93415703D01*
X96436184Y-93383000D01*
X96603816Y-93383000D01*
X96768228Y-93415703D01*
G37*
G36*
X78988228Y-93415703D02*
G01*
X79143100Y-93479853D01*
X79282481Y-93572985D01*
X79401015Y-93691519D01*
X79494147Y-93830900D01*
X79558297Y-93985772D01*
X79591000Y-94150184D01*
X79591000Y-94317816D01*
X79558297Y-94482228D01*
X79494147Y-94637100D01*
X79401015Y-94776481D01*
X79282481Y-94895015D01*
X79143100Y-94988147D01*
X78988228Y-95052297D01*
X78823816Y-95085000D01*
X78656184Y-95085000D01*
X78491772Y-95052297D01*
X78336900Y-94988147D01*
X78197519Y-94895015D01*
X78078985Y-94776481D01*
X77985853Y-94637100D01*
X77921703Y-94482228D01*
X77889000Y-94317816D01*
X77889000Y-94150184D01*
X77921703Y-93985772D01*
X77985853Y-93830900D01*
X78078985Y-93691519D01*
X78197519Y-93572985D01*
X78336900Y-93479853D01*
X78491772Y-93415703D01*
X78656184Y-93383000D01*
X78823816Y-93383000D01*
X78988228Y-93415703D01*
G37*
G36*
X94228228Y-93415703D02*
G01*
X94383100Y-93479853D01*
X94522481Y-93572985D01*
X94641015Y-93691519D01*
X94734147Y-93830900D01*
X94798297Y-93985772D01*
X94831000Y-94150184D01*
X94831000Y-94317816D01*
X94798297Y-94482228D01*
X94734147Y-94637100D01*
X94641015Y-94776481D01*
X94522481Y-94895015D01*
X94383100Y-94988147D01*
X94228228Y-95052297D01*
X94063816Y-95085000D01*
X93896184Y-95085000D01*
X93731772Y-95052297D01*
X93576900Y-94988147D01*
X93437519Y-94895015D01*
X93318985Y-94776481D01*
X93225853Y-94637100D01*
X93161703Y-94482228D01*
X93129000Y-94317816D01*
X93129000Y-94150184D01*
X93161703Y-93985772D01*
X93225853Y-93830900D01*
X93318985Y-93691519D01*
X93437519Y-93572985D01*
X93576900Y-93479853D01*
X93731772Y-93415703D01*
X93896184Y-93383000D01*
X94063816Y-93383000D01*
X94228228Y-93415703D01*
G37*
G36*
X114655629Y-93466719D02*
G01*
X114731142Y-93474156D01*
X114876476Y-93518243D01*
X114876479Y-93518244D01*
X115010416Y-93589835D01*
X115127817Y-93686183D01*
X115224165Y-93803584D01*
X115295756Y-93937521D01*
X115295757Y-93937524D01*
X115339844Y-94082858D01*
X115354730Y-94234000D01*
X115339844Y-94385142D01*
X115295757Y-94530476D01*
X115295756Y-94530479D01*
X115224165Y-94664416D01*
X115127817Y-94781817D01*
X115010416Y-94878165D01*
X114876479Y-94949756D01*
X114876476Y-94949757D01*
X114731142Y-94993844D01*
X114655629Y-95001281D01*
X114617873Y-95005000D01*
X113982127Y-95005000D01*
X113944371Y-95001281D01*
X113868858Y-94993844D01*
X113723524Y-94949757D01*
X113723521Y-94949756D01*
X113589584Y-94878165D01*
X113472183Y-94781817D01*
X113375835Y-94664416D01*
X113304244Y-94530479D01*
X113304243Y-94530476D01*
X113260156Y-94385142D01*
X113245270Y-94234000D01*
X113260156Y-94082858D01*
X113304243Y-93937524D01*
X113304244Y-93937521D01*
X113375835Y-93803584D01*
X113472183Y-93686183D01*
X113589584Y-93589835D01*
X113723521Y-93518244D01*
X113723524Y-93518243D01*
X113868858Y-93474156D01*
X113944371Y-93466719D01*
X113982127Y-93463000D01*
X114617873Y-93463000D01*
X114655629Y-93466719D01*
G37*
G36*
X91795629Y-93466719D02*
G01*
X91871142Y-93474156D01*
X92016476Y-93518243D01*
X92016479Y-93518244D01*
X92150416Y-93589835D01*
X92267817Y-93686183D01*
X92364165Y-93803584D01*
X92435756Y-93937521D01*
X92435757Y-93937524D01*
X92479844Y-94082858D01*
X92494730Y-94234000D01*
X92479844Y-94385142D01*
X92435757Y-94530476D01*
X92435756Y-94530479D01*
X92364165Y-94664416D01*
X92267817Y-94781817D01*
X92150416Y-94878165D01*
X92016479Y-94949756D01*
X92016476Y-94949757D01*
X91871142Y-94993844D01*
X91795629Y-95001281D01*
X91757873Y-95005000D01*
X91122127Y-95005000D01*
X91084371Y-95001281D01*
X91008858Y-94993844D01*
X90863524Y-94949757D01*
X90863521Y-94949756D01*
X90729584Y-94878165D01*
X90612183Y-94781817D01*
X90515835Y-94664416D01*
X90444244Y-94530479D01*
X90444243Y-94530476D01*
X90400156Y-94385142D01*
X90385270Y-94234000D01*
X90400156Y-94082858D01*
X90444243Y-93937524D01*
X90444244Y-93937521D01*
X90515835Y-93803584D01*
X90612183Y-93686183D01*
X90729584Y-93589835D01*
X90863521Y-93518244D01*
X90863524Y-93518243D01*
X91008858Y-93474156D01*
X91084371Y-93466719D01*
X91122127Y-93463000D01*
X91757873Y-93463000D01*
X91795629Y-93466719D01*
G37*
G36*
X76555629Y-93466719D02*
G01*
X76631142Y-93474156D01*
X76776476Y-93518243D01*
X76776479Y-93518244D01*
X76910416Y-93589835D01*
X77027817Y-93686183D01*
X77124165Y-93803584D01*
X77195756Y-93937521D01*
X77195757Y-93937524D01*
X77239844Y-94082858D01*
X77254730Y-94234000D01*
X77239844Y-94385142D01*
X77195757Y-94530476D01*
X77195756Y-94530479D01*
X77124165Y-94664416D01*
X77027817Y-94781817D01*
X76910416Y-94878165D01*
X76776479Y-94949756D01*
X76776476Y-94949757D01*
X76631142Y-94993844D01*
X76555629Y-95001281D01*
X76517873Y-95005000D01*
X75882127Y-95005000D01*
X75844371Y-95001281D01*
X75768858Y-94993844D01*
X75623524Y-94949757D01*
X75623521Y-94949756D01*
X75489584Y-94878165D01*
X75372183Y-94781817D01*
X75275835Y-94664416D01*
X75204244Y-94530479D01*
X75204243Y-94530476D01*
X75160156Y-94385142D01*
X75145270Y-94234000D01*
X75160156Y-94082858D01*
X75204243Y-93937524D01*
X75204244Y-93937521D01*
X75275835Y-93803584D01*
X75372183Y-93686183D01*
X75489584Y-93589835D01*
X75623521Y-93518244D01*
X75623524Y-93518243D01*
X75768858Y-93474156D01*
X75844371Y-93466719D01*
X75882127Y-93463000D01*
X76517873Y-93463000D01*
X76555629Y-93466719D01*
G37*
G36*
X99415629Y-93466719D02*
G01*
X99491142Y-93474156D01*
X99636476Y-93518243D01*
X99636479Y-93518244D01*
X99770416Y-93589835D01*
X99887817Y-93686183D01*
X99984165Y-93803584D01*
X100055756Y-93937521D01*
X100055757Y-93937524D01*
X100099844Y-94082858D01*
X100114730Y-94234000D01*
X100099844Y-94385142D01*
X100055757Y-94530476D01*
X100055756Y-94530479D01*
X99984165Y-94664416D01*
X99887817Y-94781817D01*
X99770416Y-94878165D01*
X99636479Y-94949756D01*
X99636476Y-94949757D01*
X99491142Y-94993844D01*
X99415629Y-95001281D01*
X99377873Y-95005000D01*
X98742127Y-95005000D01*
X98704371Y-95001281D01*
X98628858Y-94993844D01*
X98483524Y-94949757D01*
X98483521Y-94949756D01*
X98349584Y-94878165D01*
X98232183Y-94781817D01*
X98135835Y-94664416D01*
X98064244Y-94530479D01*
X98064243Y-94530476D01*
X98020156Y-94385142D01*
X98005270Y-94234000D01*
X98020156Y-94082858D01*
X98064243Y-93937524D01*
X98064244Y-93937521D01*
X98135835Y-93803584D01*
X98232183Y-93686183D01*
X98349584Y-93589835D01*
X98483521Y-93518244D01*
X98483524Y-93518243D01*
X98628858Y-93474156D01*
X98704371Y-93466719D01*
X98742127Y-93463000D01*
X99377873Y-93463000D01*
X99415629Y-93466719D01*
G37*
G36*
X112008228Y-90875703D02*
G01*
X112163100Y-90939853D01*
X112302481Y-91032985D01*
X112421015Y-91151519D01*
X112514147Y-91290900D01*
X112578297Y-91445772D01*
X112611000Y-91610184D01*
X112611000Y-91777816D01*
X112578297Y-91942228D01*
X112514147Y-92097100D01*
X112421015Y-92236481D01*
X112302481Y-92355015D01*
X112163100Y-92448147D01*
X112008228Y-92512297D01*
X111843816Y-92545000D01*
X111676184Y-92545000D01*
X111511772Y-92512297D01*
X111356900Y-92448147D01*
X111217519Y-92355015D01*
X111098985Y-92236481D01*
X111005853Y-92097100D01*
X110941703Y-91942228D01*
X110909000Y-91777816D01*
X110909000Y-91610184D01*
X110941703Y-91445772D01*
X111005853Y-91290900D01*
X111098985Y-91151519D01*
X111217519Y-91032985D01*
X111356900Y-90939853D01*
X111511772Y-90875703D01*
X111676184Y-90843000D01*
X111843816Y-90843000D01*
X112008228Y-90875703D01*
G37*
G36*
X78988228Y-90875703D02*
G01*
X79143100Y-90939853D01*
X79282481Y-91032985D01*
X79401015Y-91151519D01*
X79494147Y-91290900D01*
X79558297Y-91445772D01*
X79591000Y-91610184D01*
X79591000Y-91777816D01*
X79558297Y-91942228D01*
X79494147Y-92097100D01*
X79401015Y-92236481D01*
X79282481Y-92355015D01*
X79143100Y-92448147D01*
X78988228Y-92512297D01*
X78823816Y-92545000D01*
X78656184Y-92545000D01*
X78491772Y-92512297D01*
X78336900Y-92448147D01*
X78197519Y-92355015D01*
X78078985Y-92236481D01*
X77985853Y-92097100D01*
X77921703Y-91942228D01*
X77889000Y-91777816D01*
X77889000Y-91610184D01*
X77921703Y-91445772D01*
X77985853Y-91290900D01*
X78078985Y-91151519D01*
X78197519Y-91032985D01*
X78336900Y-90939853D01*
X78491772Y-90875703D01*
X78656184Y-90843000D01*
X78823816Y-90843000D01*
X78988228Y-90875703D01*
G37*
G36*
X96768228Y-90875703D02*
G01*
X96923100Y-90939853D01*
X97062481Y-91032985D01*
X97181015Y-91151519D01*
X97274147Y-91290900D01*
X97338297Y-91445772D01*
X97371000Y-91610184D01*
X97371000Y-91777816D01*
X97338297Y-91942228D01*
X97274147Y-92097100D01*
X97181015Y-92236481D01*
X97062481Y-92355015D01*
X96923100Y-92448147D01*
X96768228Y-92512297D01*
X96603816Y-92545000D01*
X96436184Y-92545000D01*
X96271772Y-92512297D01*
X96116900Y-92448147D01*
X95977519Y-92355015D01*
X95858985Y-92236481D01*
X95765853Y-92097100D01*
X95701703Y-91942228D01*
X95669000Y-91777816D01*
X95669000Y-91610184D01*
X95701703Y-91445772D01*
X95765853Y-91290900D01*
X95858985Y-91151519D01*
X95977519Y-91032985D01*
X96116900Y-90939853D01*
X96271772Y-90875703D01*
X96436184Y-90843000D01*
X96603816Y-90843000D01*
X96768228Y-90875703D01*
G37*
G36*
X94228228Y-90875703D02*
G01*
X94383100Y-90939853D01*
X94522481Y-91032985D01*
X94641015Y-91151519D01*
X94734147Y-91290900D01*
X94798297Y-91445772D01*
X94831000Y-91610184D01*
X94831000Y-91777816D01*
X94798297Y-91942228D01*
X94734147Y-92097100D01*
X94641015Y-92236481D01*
X94522481Y-92355015D01*
X94383100Y-92448147D01*
X94228228Y-92512297D01*
X94063816Y-92545000D01*
X93896184Y-92545000D01*
X93731772Y-92512297D01*
X93576900Y-92448147D01*
X93437519Y-92355015D01*
X93318985Y-92236481D01*
X93225853Y-92097100D01*
X93161703Y-91942228D01*
X93129000Y-91777816D01*
X93129000Y-91610184D01*
X93161703Y-91445772D01*
X93225853Y-91290900D01*
X93318985Y-91151519D01*
X93437519Y-91032985D01*
X93576900Y-90939853D01*
X93731772Y-90875703D01*
X93896184Y-90843000D01*
X94063816Y-90843000D01*
X94228228Y-90875703D01*
G37*
G36*
X91795629Y-90926719D02*
G01*
X91871142Y-90934156D01*
X92016476Y-90978243D01*
X92016479Y-90978244D01*
X92150416Y-91049835D01*
X92267817Y-91146183D01*
X92364165Y-91263584D01*
X92435756Y-91397521D01*
X92435757Y-91397524D01*
X92479844Y-91542858D01*
X92494730Y-91694000D01*
X92479844Y-91845142D01*
X92435757Y-91990476D01*
X92435756Y-91990479D01*
X92364165Y-92124416D01*
X92267817Y-92241817D01*
X92150416Y-92338165D01*
X92016479Y-92409756D01*
X92016476Y-92409757D01*
X91871142Y-92453844D01*
X91795629Y-92461281D01*
X91757873Y-92465000D01*
X91122127Y-92465000D01*
X91084371Y-92461281D01*
X91008858Y-92453844D01*
X90863524Y-92409757D01*
X90863521Y-92409756D01*
X90729584Y-92338165D01*
X90612183Y-92241817D01*
X90515835Y-92124416D01*
X90444244Y-91990479D01*
X90444243Y-91990476D01*
X90400156Y-91845142D01*
X90385270Y-91694000D01*
X90400156Y-91542858D01*
X90444243Y-91397524D01*
X90444244Y-91397521D01*
X90515835Y-91263584D01*
X90612183Y-91146183D01*
X90729584Y-91049835D01*
X90863521Y-90978244D01*
X90863524Y-90978243D01*
X91008858Y-90934156D01*
X91084371Y-90926719D01*
X91122127Y-90923000D01*
X91757873Y-90923000D01*
X91795629Y-90926719D01*
G37*
G36*
X99415629Y-90926719D02*
G01*
X99491142Y-90934156D01*
X99636476Y-90978243D01*
X99636479Y-90978244D01*
X99770416Y-91049835D01*
X99887817Y-91146183D01*
X99984165Y-91263584D01*
X100055756Y-91397521D01*
X100055757Y-91397524D01*
X100099844Y-91542858D01*
X100114730Y-91694000D01*
X100099844Y-91845142D01*
X100055757Y-91990476D01*
X100055756Y-91990479D01*
X99984165Y-92124416D01*
X99887817Y-92241817D01*
X99770416Y-92338165D01*
X99636479Y-92409756D01*
X99636476Y-92409757D01*
X99491142Y-92453844D01*
X99415629Y-92461281D01*
X99377873Y-92465000D01*
X98742127Y-92465000D01*
X98704371Y-92461281D01*
X98628858Y-92453844D01*
X98483524Y-92409757D01*
X98483521Y-92409756D01*
X98349584Y-92338165D01*
X98232183Y-92241817D01*
X98135835Y-92124416D01*
X98064244Y-91990479D01*
X98064243Y-91990476D01*
X98020156Y-91845142D01*
X98005270Y-91694000D01*
X98020156Y-91542858D01*
X98064243Y-91397524D01*
X98064244Y-91397521D01*
X98135835Y-91263584D01*
X98232183Y-91146183D01*
X98349584Y-91049835D01*
X98483521Y-90978244D01*
X98483524Y-90978243D01*
X98628858Y-90934156D01*
X98704371Y-90926719D01*
X98742127Y-90923000D01*
X99377873Y-90923000D01*
X99415629Y-90926719D01*
G37*
G36*
X114655629Y-90926719D02*
G01*
X114731142Y-90934156D01*
X114876476Y-90978243D01*
X114876479Y-90978244D01*
X115010416Y-91049835D01*
X115127817Y-91146183D01*
X115224165Y-91263584D01*
X115295756Y-91397521D01*
X115295757Y-91397524D01*
X115339844Y-91542858D01*
X115354730Y-91694000D01*
X115339844Y-91845142D01*
X115295757Y-91990476D01*
X115295756Y-91990479D01*
X115224165Y-92124416D01*
X115127817Y-92241817D01*
X115010416Y-92338165D01*
X114876479Y-92409756D01*
X114876476Y-92409757D01*
X114731142Y-92453844D01*
X114655629Y-92461281D01*
X114617873Y-92465000D01*
X113982127Y-92465000D01*
X113944371Y-92461281D01*
X113868858Y-92453844D01*
X113723524Y-92409757D01*
X113723521Y-92409756D01*
X113589584Y-92338165D01*
X113472183Y-92241817D01*
X113375835Y-92124416D01*
X113304244Y-91990479D01*
X113304243Y-91990476D01*
X113260156Y-91845142D01*
X113245270Y-91694000D01*
X113260156Y-91542858D01*
X113304243Y-91397524D01*
X113304244Y-91397521D01*
X113375835Y-91263584D01*
X113472183Y-91146183D01*
X113589584Y-91049835D01*
X113723521Y-90978244D01*
X113723524Y-90978243D01*
X113868858Y-90934156D01*
X113944371Y-90926719D01*
X113982127Y-90923000D01*
X114617873Y-90923000D01*
X114655629Y-90926719D01*
G37*
G36*
X76555629Y-90926719D02*
G01*
X76631142Y-90934156D01*
X76776476Y-90978243D01*
X76776479Y-90978244D01*
X76910416Y-91049835D01*
X77027817Y-91146183D01*
X77124165Y-91263584D01*
X77195756Y-91397521D01*
X77195757Y-91397524D01*
X77239844Y-91542858D01*
X77254730Y-91694000D01*
X77239844Y-91845142D01*
X77195757Y-91990476D01*
X77195756Y-91990479D01*
X77124165Y-92124416D01*
X77027817Y-92241817D01*
X76910416Y-92338165D01*
X76776479Y-92409756D01*
X76776476Y-92409757D01*
X76631142Y-92453844D01*
X76555629Y-92461281D01*
X76517873Y-92465000D01*
X75882127Y-92465000D01*
X75844371Y-92461281D01*
X75768858Y-92453844D01*
X75623524Y-92409757D01*
X75623521Y-92409756D01*
X75489584Y-92338165D01*
X75372183Y-92241817D01*
X75275835Y-92124416D01*
X75204244Y-91990479D01*
X75204243Y-91990476D01*
X75160156Y-91845142D01*
X75145270Y-91694000D01*
X75160156Y-91542858D01*
X75204243Y-91397524D01*
X75204244Y-91397521D01*
X75275835Y-91263584D01*
X75372183Y-91146183D01*
X75489584Y-91049835D01*
X75623521Y-90978244D01*
X75623524Y-90978243D01*
X75768858Y-90934156D01*
X75844371Y-90926719D01*
X75882127Y-90923000D01*
X76517873Y-90923000D01*
X76555629Y-90926719D01*
G37*
G36*
X112008228Y-88335703D02*
G01*
X112163100Y-88399853D01*
X112302481Y-88492985D01*
X112421015Y-88611519D01*
X112514147Y-88750900D01*
X112578297Y-88905772D01*
X112611000Y-89070184D01*
X112611000Y-89237816D01*
X112578297Y-89402228D01*
X112514147Y-89557100D01*
X112421015Y-89696481D01*
X112302481Y-89815015D01*
X112163100Y-89908147D01*
X112008228Y-89972297D01*
X111843816Y-90005000D01*
X111676184Y-90005000D01*
X111511772Y-89972297D01*
X111356900Y-89908147D01*
X111217519Y-89815015D01*
X111098985Y-89696481D01*
X111005853Y-89557100D01*
X110941703Y-89402228D01*
X110909000Y-89237816D01*
X110909000Y-89070184D01*
X110941703Y-88905772D01*
X111005853Y-88750900D01*
X111098985Y-88611519D01*
X111217519Y-88492985D01*
X111356900Y-88399853D01*
X111511772Y-88335703D01*
X111676184Y-88303000D01*
X111843816Y-88303000D01*
X112008228Y-88335703D01*
G37*
G36*
X96768228Y-88335703D02*
G01*
X96923100Y-88399853D01*
X97062481Y-88492985D01*
X97181015Y-88611519D01*
X97274147Y-88750900D01*
X97338297Y-88905772D01*
X97371000Y-89070184D01*
X97371000Y-89237816D01*
X97338297Y-89402228D01*
X97274147Y-89557100D01*
X97181015Y-89696481D01*
X97062481Y-89815015D01*
X96923100Y-89908147D01*
X96768228Y-89972297D01*
X96603816Y-90005000D01*
X96436184Y-90005000D01*
X96271772Y-89972297D01*
X96116900Y-89908147D01*
X95977519Y-89815015D01*
X95858985Y-89696481D01*
X95765853Y-89557100D01*
X95701703Y-89402228D01*
X95669000Y-89237816D01*
X95669000Y-89070184D01*
X95701703Y-88905772D01*
X95765853Y-88750900D01*
X95858985Y-88611519D01*
X95977519Y-88492985D01*
X96116900Y-88399853D01*
X96271772Y-88335703D01*
X96436184Y-88303000D01*
X96603816Y-88303000D01*
X96768228Y-88335703D01*
G37*
G36*
X94228228Y-88335703D02*
G01*
X94383100Y-88399853D01*
X94522481Y-88492985D01*
X94641015Y-88611519D01*
X94734147Y-88750900D01*
X94798297Y-88905772D01*
X94831000Y-89070184D01*
X94831000Y-89237816D01*
X94798297Y-89402228D01*
X94734147Y-89557100D01*
X94641015Y-89696481D01*
X94522481Y-89815015D01*
X94383100Y-89908147D01*
X94228228Y-89972297D01*
X94063816Y-90005000D01*
X93896184Y-90005000D01*
X93731772Y-89972297D01*
X93576900Y-89908147D01*
X93437519Y-89815015D01*
X93318985Y-89696481D01*
X93225853Y-89557100D01*
X93161703Y-89402228D01*
X93129000Y-89237816D01*
X93129000Y-89070184D01*
X93161703Y-88905772D01*
X93225853Y-88750900D01*
X93318985Y-88611519D01*
X93437519Y-88492985D01*
X93576900Y-88399853D01*
X93731772Y-88335703D01*
X93896184Y-88303000D01*
X94063816Y-88303000D01*
X94228228Y-88335703D01*
G37*
G36*
X78988228Y-88335703D02*
G01*
X79143100Y-88399853D01*
X79282481Y-88492985D01*
X79401015Y-88611519D01*
X79494147Y-88750900D01*
X79558297Y-88905772D01*
X79591000Y-89070184D01*
X79591000Y-89237816D01*
X79558297Y-89402228D01*
X79494147Y-89557100D01*
X79401015Y-89696481D01*
X79282481Y-89815015D01*
X79143100Y-89908147D01*
X78988228Y-89972297D01*
X78823816Y-90005000D01*
X78656184Y-90005000D01*
X78491772Y-89972297D01*
X78336900Y-89908147D01*
X78197519Y-89815015D01*
X78078985Y-89696481D01*
X77985853Y-89557100D01*
X77921703Y-89402228D01*
X77889000Y-89237816D01*
X77889000Y-89070184D01*
X77921703Y-88905772D01*
X77985853Y-88750900D01*
X78078985Y-88611519D01*
X78197519Y-88492985D01*
X78336900Y-88399853D01*
X78491772Y-88335703D01*
X78656184Y-88303000D01*
X78823816Y-88303000D01*
X78988228Y-88335703D01*
G37*
G36*
X114655629Y-88386719D02*
G01*
X114731142Y-88394156D01*
X114876476Y-88438243D01*
X114876479Y-88438244D01*
X115010416Y-88509835D01*
X115127817Y-88606183D01*
X115224165Y-88723584D01*
X115295756Y-88857521D01*
X115295757Y-88857524D01*
X115339844Y-89002858D01*
X115354730Y-89154000D01*
X115339844Y-89305142D01*
X115295757Y-89450476D01*
X115295756Y-89450479D01*
X115224165Y-89584416D01*
X115127817Y-89701817D01*
X115010416Y-89798165D01*
X114876479Y-89869756D01*
X114876476Y-89869757D01*
X114731142Y-89913844D01*
X114655629Y-89921281D01*
X114617873Y-89925000D01*
X113982127Y-89925000D01*
X113944371Y-89921281D01*
X113868858Y-89913844D01*
X113723524Y-89869757D01*
X113723521Y-89869756D01*
X113589584Y-89798165D01*
X113472183Y-89701817D01*
X113375835Y-89584416D01*
X113304244Y-89450479D01*
X113304243Y-89450476D01*
X113260156Y-89305142D01*
X113245270Y-89154000D01*
X113260156Y-89002858D01*
X113304243Y-88857524D01*
X113304244Y-88857521D01*
X113375835Y-88723584D01*
X113472183Y-88606183D01*
X113589584Y-88509835D01*
X113723521Y-88438244D01*
X113723524Y-88438243D01*
X113868858Y-88394156D01*
X113944371Y-88386719D01*
X113982127Y-88383000D01*
X114617873Y-88383000D01*
X114655629Y-88386719D01*
G37*
G36*
X76555629Y-88386719D02*
G01*
X76631142Y-88394156D01*
X76776476Y-88438243D01*
X76776479Y-88438244D01*
X76910416Y-88509835D01*
X77027817Y-88606183D01*
X77124165Y-88723584D01*
X77195756Y-88857521D01*
X77195757Y-88857524D01*
X77239844Y-89002858D01*
X77254730Y-89154000D01*
X77239844Y-89305142D01*
X77195757Y-89450476D01*
X77195756Y-89450479D01*
X77124165Y-89584416D01*
X77027817Y-89701817D01*
X76910416Y-89798165D01*
X76776479Y-89869756D01*
X76776476Y-89869757D01*
X76631142Y-89913844D01*
X76555629Y-89921281D01*
X76517873Y-89925000D01*
X75882127Y-89925000D01*
X75844371Y-89921281D01*
X75768858Y-89913844D01*
X75623524Y-89869757D01*
X75623521Y-89869756D01*
X75489584Y-89798165D01*
X75372183Y-89701817D01*
X75275835Y-89584416D01*
X75204244Y-89450479D01*
X75204243Y-89450476D01*
X75160156Y-89305142D01*
X75145270Y-89154000D01*
X75160156Y-89002858D01*
X75204243Y-88857524D01*
X75204244Y-88857521D01*
X75275835Y-88723584D01*
X75372183Y-88606183D01*
X75489584Y-88509835D01*
X75623521Y-88438244D01*
X75623524Y-88438243D01*
X75768858Y-88394156D01*
X75844371Y-88386719D01*
X75882127Y-88383000D01*
X76517873Y-88383000D01*
X76555629Y-88386719D01*
G37*
G36*
X91795629Y-88386719D02*
G01*
X91871142Y-88394156D01*
X92016476Y-88438243D01*
X92016479Y-88438244D01*
X92150416Y-88509835D01*
X92267817Y-88606183D01*
X92364165Y-88723584D01*
X92435756Y-88857521D01*
X92435757Y-88857524D01*
X92479844Y-89002858D01*
X92494730Y-89154000D01*
X92479844Y-89305142D01*
X92435757Y-89450476D01*
X92435756Y-89450479D01*
X92364165Y-89584416D01*
X92267817Y-89701817D01*
X92150416Y-89798165D01*
X92016479Y-89869756D01*
X92016476Y-89869757D01*
X91871142Y-89913844D01*
X91795629Y-89921281D01*
X91757873Y-89925000D01*
X91122127Y-89925000D01*
X91084371Y-89921281D01*
X91008858Y-89913844D01*
X90863524Y-89869757D01*
X90863521Y-89869756D01*
X90729584Y-89798165D01*
X90612183Y-89701817D01*
X90515835Y-89584416D01*
X90444244Y-89450479D01*
X90444243Y-89450476D01*
X90400156Y-89305142D01*
X90385270Y-89154000D01*
X90400156Y-89002858D01*
X90444243Y-88857524D01*
X90444244Y-88857521D01*
X90515835Y-88723584D01*
X90612183Y-88606183D01*
X90729584Y-88509835D01*
X90863521Y-88438244D01*
X90863524Y-88438243D01*
X91008858Y-88394156D01*
X91084371Y-88386719D01*
X91122127Y-88383000D01*
X91757873Y-88383000D01*
X91795629Y-88386719D01*
G37*
G36*
X99415629Y-88386719D02*
G01*
X99491142Y-88394156D01*
X99636476Y-88438243D01*
X99636479Y-88438244D01*
X99770416Y-88509835D01*
X99887817Y-88606183D01*
X99984165Y-88723584D01*
X100055756Y-88857521D01*
X100055757Y-88857524D01*
X100099844Y-89002858D01*
X100114730Y-89154000D01*
X100099844Y-89305142D01*
X100055757Y-89450476D01*
X100055756Y-89450479D01*
X99984165Y-89584416D01*
X99887817Y-89701817D01*
X99770416Y-89798165D01*
X99636479Y-89869756D01*
X99636476Y-89869757D01*
X99491142Y-89913844D01*
X99415629Y-89921281D01*
X99377873Y-89925000D01*
X98742127Y-89925000D01*
X98704371Y-89921281D01*
X98628858Y-89913844D01*
X98483524Y-89869757D01*
X98483521Y-89869756D01*
X98349584Y-89798165D01*
X98232183Y-89701817D01*
X98135835Y-89584416D01*
X98064244Y-89450479D01*
X98064243Y-89450476D01*
X98020156Y-89305142D01*
X98005270Y-89154000D01*
X98020156Y-89002858D01*
X98064243Y-88857524D01*
X98064244Y-88857521D01*
X98135835Y-88723584D01*
X98232183Y-88606183D01*
X98349584Y-88509835D01*
X98483521Y-88438244D01*
X98483524Y-88438243D01*
X98628858Y-88394156D01*
X98704371Y-88386719D01*
X98742127Y-88383000D01*
X99377873Y-88383000D01*
X99415629Y-88386719D01*
G37*
G36*
X112008228Y-85795703D02*
G01*
X112163100Y-85859853D01*
X112302481Y-85952985D01*
X112421015Y-86071519D01*
X112514147Y-86210900D01*
X112578297Y-86365772D01*
X112611000Y-86530184D01*
X112611000Y-86697816D01*
X112578297Y-86862228D01*
X112514147Y-87017100D01*
X112421015Y-87156481D01*
X112302481Y-87275015D01*
X112163100Y-87368147D01*
X112008228Y-87432297D01*
X111843816Y-87465000D01*
X111676184Y-87465000D01*
X111511772Y-87432297D01*
X111356900Y-87368147D01*
X111217519Y-87275015D01*
X111098985Y-87156481D01*
X111005853Y-87017100D01*
X110941703Y-86862228D01*
X110909000Y-86697816D01*
X110909000Y-86530184D01*
X110941703Y-86365772D01*
X111005853Y-86210900D01*
X111098985Y-86071519D01*
X111217519Y-85952985D01*
X111356900Y-85859853D01*
X111511772Y-85795703D01*
X111676184Y-85763000D01*
X111843816Y-85763000D01*
X112008228Y-85795703D01*
G37*
G36*
X94228228Y-85795703D02*
G01*
X94383100Y-85859853D01*
X94522481Y-85952985D01*
X94641015Y-86071519D01*
X94734147Y-86210900D01*
X94798297Y-86365772D01*
X94831000Y-86530184D01*
X94831000Y-86697816D01*
X94798297Y-86862228D01*
X94734147Y-87017100D01*
X94641015Y-87156481D01*
X94522481Y-87275015D01*
X94383100Y-87368147D01*
X94228228Y-87432297D01*
X94063816Y-87465000D01*
X93896184Y-87465000D01*
X93731772Y-87432297D01*
X93576900Y-87368147D01*
X93437519Y-87275015D01*
X93318985Y-87156481D01*
X93225853Y-87017100D01*
X93161703Y-86862228D01*
X93129000Y-86697816D01*
X93129000Y-86530184D01*
X93161703Y-86365772D01*
X93225853Y-86210900D01*
X93318985Y-86071519D01*
X93437519Y-85952985D01*
X93576900Y-85859853D01*
X93731772Y-85795703D01*
X93896184Y-85763000D01*
X94063816Y-85763000D01*
X94228228Y-85795703D01*
G37*
G36*
X78988228Y-85795703D02*
G01*
X79143100Y-85859853D01*
X79282481Y-85952985D01*
X79401015Y-86071519D01*
X79494147Y-86210900D01*
X79558297Y-86365772D01*
X79591000Y-86530184D01*
X79591000Y-86697816D01*
X79558297Y-86862228D01*
X79494147Y-87017100D01*
X79401015Y-87156481D01*
X79282481Y-87275015D01*
X79143100Y-87368147D01*
X78988228Y-87432297D01*
X78823816Y-87465000D01*
X78656184Y-87465000D01*
X78491772Y-87432297D01*
X78336900Y-87368147D01*
X78197519Y-87275015D01*
X78078985Y-87156481D01*
X77985853Y-87017100D01*
X77921703Y-86862228D01*
X77889000Y-86697816D01*
X77889000Y-86530184D01*
X77921703Y-86365772D01*
X77985853Y-86210900D01*
X78078985Y-86071519D01*
X78197519Y-85952985D01*
X78336900Y-85859853D01*
X78491772Y-85795703D01*
X78656184Y-85763000D01*
X78823816Y-85763000D01*
X78988228Y-85795703D01*
G37*
G36*
X96768228Y-85795703D02*
G01*
X96923100Y-85859853D01*
X97062481Y-85952985D01*
X97181015Y-86071519D01*
X97274147Y-86210900D01*
X97338297Y-86365772D01*
X97371000Y-86530184D01*
X97371000Y-86697816D01*
X97338297Y-86862228D01*
X97274147Y-87017100D01*
X97181015Y-87156481D01*
X97062481Y-87275015D01*
X96923100Y-87368147D01*
X96768228Y-87432297D01*
X96603816Y-87465000D01*
X96436184Y-87465000D01*
X96271772Y-87432297D01*
X96116900Y-87368147D01*
X95977519Y-87275015D01*
X95858985Y-87156481D01*
X95765853Y-87017100D01*
X95701703Y-86862228D01*
X95669000Y-86697816D01*
X95669000Y-86530184D01*
X95701703Y-86365772D01*
X95765853Y-86210900D01*
X95858985Y-86071519D01*
X95977519Y-85952985D01*
X96116900Y-85859853D01*
X96271772Y-85795703D01*
X96436184Y-85763000D01*
X96603816Y-85763000D01*
X96768228Y-85795703D01*
G37*
G36*
X91795629Y-85846719D02*
G01*
X91871142Y-85854156D01*
X92016476Y-85898243D01*
X92016479Y-85898244D01*
X92150416Y-85969835D01*
X92267817Y-86066183D01*
X92364165Y-86183584D01*
X92435756Y-86317521D01*
X92435757Y-86317524D01*
X92479844Y-86462858D01*
X92494730Y-86614000D01*
X92479844Y-86765142D01*
X92435757Y-86910476D01*
X92435756Y-86910479D01*
X92364165Y-87044416D01*
X92267817Y-87161817D01*
X92150416Y-87258165D01*
X92016479Y-87329756D01*
X92016476Y-87329757D01*
X91871142Y-87373844D01*
X91795629Y-87381281D01*
X91757873Y-87385000D01*
X91122127Y-87385000D01*
X91084371Y-87381281D01*
X91008858Y-87373844D01*
X90863524Y-87329757D01*
X90863521Y-87329756D01*
X90729584Y-87258165D01*
X90612183Y-87161817D01*
X90515835Y-87044416D01*
X90444244Y-86910479D01*
X90444243Y-86910476D01*
X90400156Y-86765142D01*
X90385270Y-86614000D01*
X90400156Y-86462858D01*
X90444243Y-86317524D01*
X90444244Y-86317521D01*
X90515835Y-86183584D01*
X90612183Y-86066183D01*
X90729584Y-85969835D01*
X90863521Y-85898244D01*
X90863524Y-85898243D01*
X91008858Y-85854156D01*
X91084371Y-85846719D01*
X91122127Y-85843000D01*
X91757873Y-85843000D01*
X91795629Y-85846719D01*
G37*
G36*
X76555629Y-85846719D02*
G01*
X76631142Y-85854156D01*
X76776476Y-85898243D01*
X76776479Y-85898244D01*
X76910416Y-85969835D01*
X77027817Y-86066183D01*
X77124165Y-86183584D01*
X77195756Y-86317521D01*
X77195757Y-86317524D01*
X77239844Y-86462858D01*
X77254730Y-86614000D01*
X77239844Y-86765142D01*
X77195757Y-86910476D01*
X77195756Y-86910479D01*
X77124165Y-87044416D01*
X77027817Y-87161817D01*
X76910416Y-87258165D01*
X76776479Y-87329756D01*
X76776476Y-87329757D01*
X76631142Y-87373844D01*
X76555629Y-87381281D01*
X76517873Y-87385000D01*
X75882127Y-87385000D01*
X75844371Y-87381281D01*
X75768858Y-87373844D01*
X75623524Y-87329757D01*
X75623521Y-87329756D01*
X75489584Y-87258165D01*
X75372183Y-87161817D01*
X75275835Y-87044416D01*
X75204244Y-86910479D01*
X75204243Y-86910476D01*
X75160156Y-86765142D01*
X75145270Y-86614000D01*
X75160156Y-86462858D01*
X75204243Y-86317524D01*
X75204244Y-86317521D01*
X75275835Y-86183584D01*
X75372183Y-86066183D01*
X75489584Y-85969835D01*
X75623521Y-85898244D01*
X75623524Y-85898243D01*
X75768858Y-85854156D01*
X75844371Y-85846719D01*
X75882127Y-85843000D01*
X76517873Y-85843000D01*
X76555629Y-85846719D01*
G37*
G36*
X114655629Y-85846719D02*
G01*
X114731142Y-85854156D01*
X114876476Y-85898243D01*
X114876479Y-85898244D01*
X115010416Y-85969835D01*
X115127817Y-86066183D01*
X115224165Y-86183584D01*
X115295756Y-86317521D01*
X115295757Y-86317524D01*
X115339844Y-86462858D01*
X115354730Y-86614000D01*
X115339844Y-86765142D01*
X115295757Y-86910476D01*
X115295756Y-86910479D01*
X115224165Y-87044416D01*
X115127817Y-87161817D01*
X115010416Y-87258165D01*
X114876479Y-87329756D01*
X114876476Y-87329757D01*
X114731142Y-87373844D01*
X114655629Y-87381281D01*
X114617873Y-87385000D01*
X113982127Y-87385000D01*
X113944371Y-87381281D01*
X113868858Y-87373844D01*
X113723524Y-87329757D01*
X113723521Y-87329756D01*
X113589584Y-87258165D01*
X113472183Y-87161817D01*
X113375835Y-87044416D01*
X113304244Y-86910479D01*
X113304243Y-86910476D01*
X113260156Y-86765142D01*
X113245270Y-86614000D01*
X113260156Y-86462858D01*
X113304243Y-86317524D01*
X113304244Y-86317521D01*
X113375835Y-86183584D01*
X113472183Y-86066183D01*
X113589584Y-85969835D01*
X113723521Y-85898244D01*
X113723524Y-85898243D01*
X113868858Y-85854156D01*
X113944371Y-85846719D01*
X113982127Y-85843000D01*
X114617873Y-85843000D01*
X114655629Y-85846719D01*
G37*
G36*
X99415629Y-85846719D02*
G01*
X99491142Y-85854156D01*
X99636476Y-85898243D01*
X99636479Y-85898244D01*
X99770416Y-85969835D01*
X99887817Y-86066183D01*
X99984165Y-86183584D01*
X100055756Y-86317521D01*
X100055757Y-86317524D01*
X100099844Y-86462858D01*
X100114730Y-86614000D01*
X100099844Y-86765142D01*
X100055757Y-86910476D01*
X100055756Y-86910479D01*
X99984165Y-87044416D01*
X99887817Y-87161817D01*
X99770416Y-87258165D01*
X99636479Y-87329756D01*
X99636476Y-87329757D01*
X99491142Y-87373844D01*
X99415629Y-87381281D01*
X99377873Y-87385000D01*
X98742127Y-87385000D01*
X98704371Y-87381281D01*
X98628858Y-87373844D01*
X98483524Y-87329757D01*
X98483521Y-87329756D01*
X98349584Y-87258165D01*
X98232183Y-87161817D01*
X98135835Y-87044416D01*
X98064244Y-86910479D01*
X98064243Y-86910476D01*
X98020156Y-86765142D01*
X98005270Y-86614000D01*
X98020156Y-86462858D01*
X98064243Y-86317524D01*
X98064244Y-86317521D01*
X98135835Y-86183584D01*
X98232183Y-86066183D01*
X98349584Y-85969835D01*
X98483521Y-85898244D01*
X98483524Y-85898243D01*
X98628858Y-85854156D01*
X98704371Y-85846719D01*
X98742127Y-85843000D01*
X99377873Y-85843000D01*
X99415629Y-85846719D01*
G37*
G36*
X112008228Y-83255703D02*
G01*
X112163100Y-83319853D01*
X112302481Y-83412985D01*
X112421015Y-83531519D01*
X112514147Y-83670900D01*
X112578297Y-83825772D01*
X112611000Y-83990184D01*
X112611000Y-84157816D01*
X112578297Y-84322228D01*
X112514147Y-84477100D01*
X112421015Y-84616481D01*
X112302481Y-84735015D01*
X112163100Y-84828147D01*
X112008228Y-84892297D01*
X111843816Y-84925000D01*
X111676184Y-84925000D01*
X111511772Y-84892297D01*
X111356900Y-84828147D01*
X111217519Y-84735015D01*
X111098985Y-84616481D01*
X111005853Y-84477100D01*
X110941703Y-84322228D01*
X110909000Y-84157816D01*
X110909000Y-83990184D01*
X110941703Y-83825772D01*
X111005853Y-83670900D01*
X111098985Y-83531519D01*
X111217519Y-83412985D01*
X111356900Y-83319853D01*
X111511772Y-83255703D01*
X111676184Y-83223000D01*
X111843816Y-83223000D01*
X112008228Y-83255703D01*
G37*
G36*
X78988228Y-83255703D02*
G01*
X79143100Y-83319853D01*
X79282481Y-83412985D01*
X79401015Y-83531519D01*
X79494147Y-83670900D01*
X79558297Y-83825772D01*
X79591000Y-83990184D01*
X79591000Y-84157816D01*
X79558297Y-84322228D01*
X79494147Y-84477100D01*
X79401015Y-84616481D01*
X79282481Y-84735015D01*
X79143100Y-84828147D01*
X78988228Y-84892297D01*
X78823816Y-84925000D01*
X78656184Y-84925000D01*
X78491772Y-84892297D01*
X78336900Y-84828147D01*
X78197519Y-84735015D01*
X78078985Y-84616481D01*
X77985853Y-84477100D01*
X77921703Y-84322228D01*
X77889000Y-84157816D01*
X77889000Y-83990184D01*
X77921703Y-83825772D01*
X77985853Y-83670900D01*
X78078985Y-83531519D01*
X78197519Y-83412985D01*
X78336900Y-83319853D01*
X78491772Y-83255703D01*
X78656184Y-83223000D01*
X78823816Y-83223000D01*
X78988228Y-83255703D01*
G37*
G36*
X94228228Y-83255703D02*
G01*
X94383100Y-83319853D01*
X94522481Y-83412985D01*
X94641015Y-83531519D01*
X94734147Y-83670900D01*
X94798297Y-83825772D01*
X94831000Y-83990184D01*
X94831000Y-84157816D01*
X94798297Y-84322228D01*
X94734147Y-84477100D01*
X94641015Y-84616481D01*
X94522481Y-84735015D01*
X94383100Y-84828147D01*
X94228228Y-84892297D01*
X94063816Y-84925000D01*
X93896184Y-84925000D01*
X93731772Y-84892297D01*
X93576900Y-84828147D01*
X93437519Y-84735015D01*
X93318985Y-84616481D01*
X93225853Y-84477100D01*
X93161703Y-84322228D01*
X93129000Y-84157816D01*
X93129000Y-83990184D01*
X93161703Y-83825772D01*
X93225853Y-83670900D01*
X93318985Y-83531519D01*
X93437519Y-83412985D01*
X93576900Y-83319853D01*
X93731772Y-83255703D01*
X93896184Y-83223000D01*
X94063816Y-83223000D01*
X94228228Y-83255703D01*
G37*
G36*
X96768228Y-83255703D02*
G01*
X96923100Y-83319853D01*
X97062481Y-83412985D01*
X97181015Y-83531519D01*
X97274147Y-83670900D01*
X97338297Y-83825772D01*
X97371000Y-83990184D01*
X97371000Y-84157816D01*
X97338297Y-84322228D01*
X97274147Y-84477100D01*
X97181015Y-84616481D01*
X97062481Y-84735015D01*
X96923100Y-84828147D01*
X96768228Y-84892297D01*
X96603816Y-84925000D01*
X96436184Y-84925000D01*
X96271772Y-84892297D01*
X96116900Y-84828147D01*
X95977519Y-84735015D01*
X95858985Y-84616481D01*
X95765853Y-84477100D01*
X95701703Y-84322228D01*
X95669000Y-84157816D01*
X95669000Y-83990184D01*
X95701703Y-83825772D01*
X95765853Y-83670900D01*
X95858985Y-83531519D01*
X95977519Y-83412985D01*
X96116900Y-83319853D01*
X96271772Y-83255703D01*
X96436184Y-83223000D01*
X96603816Y-83223000D01*
X96768228Y-83255703D01*
G37*
G36*
X76555629Y-83306719D02*
G01*
X76631142Y-83314156D01*
X76776476Y-83358243D01*
X76776479Y-83358244D01*
X76910416Y-83429835D01*
X77027817Y-83526183D01*
X77124165Y-83643584D01*
X77195756Y-83777521D01*
X77195757Y-83777524D01*
X77239844Y-83922858D01*
X77254730Y-84074000D01*
X77239844Y-84225142D01*
X77195757Y-84370476D01*
X77195756Y-84370479D01*
X77124165Y-84504416D01*
X77027817Y-84621817D01*
X76910416Y-84718165D01*
X76776479Y-84789756D01*
X76776476Y-84789757D01*
X76631142Y-84833844D01*
X76555629Y-84841281D01*
X76517873Y-84845000D01*
X75882127Y-84845000D01*
X75844371Y-84841281D01*
X75768858Y-84833844D01*
X75623524Y-84789757D01*
X75623521Y-84789756D01*
X75489584Y-84718165D01*
X75372183Y-84621817D01*
X75275835Y-84504416D01*
X75204244Y-84370479D01*
X75204243Y-84370476D01*
X75160156Y-84225142D01*
X75145270Y-84074000D01*
X75160156Y-83922858D01*
X75204243Y-83777524D01*
X75204244Y-83777521D01*
X75275835Y-83643584D01*
X75372183Y-83526183D01*
X75489584Y-83429835D01*
X75623521Y-83358244D01*
X75623524Y-83358243D01*
X75768858Y-83314156D01*
X75844371Y-83306719D01*
X75882127Y-83303000D01*
X76517873Y-83303000D01*
X76555629Y-83306719D01*
G37*
G36*
X114655629Y-83306719D02*
G01*
X114731142Y-83314156D01*
X114876476Y-83358243D01*
X114876479Y-83358244D01*
X115010416Y-83429835D01*
X115127817Y-83526183D01*
X115224165Y-83643584D01*
X115295756Y-83777521D01*
X115295757Y-83777524D01*
X115339844Y-83922858D01*
X115354730Y-84074000D01*
X115339844Y-84225142D01*
X115295757Y-84370476D01*
X115295756Y-84370479D01*
X115224165Y-84504416D01*
X115127817Y-84621817D01*
X115010416Y-84718165D01*
X114876479Y-84789756D01*
X114876476Y-84789757D01*
X114731142Y-84833844D01*
X114655629Y-84841281D01*
X114617873Y-84845000D01*
X113982127Y-84845000D01*
X113944371Y-84841281D01*
X113868858Y-84833844D01*
X113723524Y-84789757D01*
X113723521Y-84789756D01*
X113589584Y-84718165D01*
X113472183Y-84621817D01*
X113375835Y-84504416D01*
X113304244Y-84370479D01*
X113304243Y-84370476D01*
X113260156Y-84225142D01*
X113245270Y-84074000D01*
X113260156Y-83922858D01*
X113304243Y-83777524D01*
X113304244Y-83777521D01*
X113375835Y-83643584D01*
X113472183Y-83526183D01*
X113589584Y-83429835D01*
X113723521Y-83358244D01*
X113723524Y-83358243D01*
X113868858Y-83314156D01*
X113944371Y-83306719D01*
X113982127Y-83303000D01*
X114617873Y-83303000D01*
X114655629Y-83306719D01*
G37*
G36*
X99415629Y-83306719D02*
G01*
X99491142Y-83314156D01*
X99636476Y-83358243D01*
X99636479Y-83358244D01*
X99770416Y-83429835D01*
X99887817Y-83526183D01*
X99984165Y-83643584D01*
X100055756Y-83777521D01*
X100055757Y-83777524D01*
X100099844Y-83922858D01*
X100114730Y-84074000D01*
X100099844Y-84225142D01*
X100055757Y-84370476D01*
X100055756Y-84370479D01*
X99984165Y-84504416D01*
X99887817Y-84621817D01*
X99770416Y-84718165D01*
X99636479Y-84789756D01*
X99636476Y-84789757D01*
X99491142Y-84833844D01*
X99415629Y-84841281D01*
X99377873Y-84845000D01*
X98742127Y-84845000D01*
X98704371Y-84841281D01*
X98628858Y-84833844D01*
X98483524Y-84789757D01*
X98483521Y-84789756D01*
X98349584Y-84718165D01*
X98232183Y-84621817D01*
X98135835Y-84504416D01*
X98064244Y-84370479D01*
X98064243Y-84370476D01*
X98020156Y-84225142D01*
X98005270Y-84074000D01*
X98020156Y-83922858D01*
X98064243Y-83777524D01*
X98064244Y-83777521D01*
X98135835Y-83643584D01*
X98232183Y-83526183D01*
X98349584Y-83429835D01*
X98483521Y-83358244D01*
X98483524Y-83358243D01*
X98628858Y-83314156D01*
X98704371Y-83306719D01*
X98742127Y-83303000D01*
X99377873Y-83303000D01*
X99415629Y-83306719D01*
G37*
G36*
X91795629Y-83306719D02*
G01*
X91871142Y-83314156D01*
X92016476Y-83358243D01*
X92016479Y-83358244D01*
X92150416Y-83429835D01*
X92267817Y-83526183D01*
X92364165Y-83643584D01*
X92435756Y-83777521D01*
X92435757Y-83777524D01*
X92479844Y-83922858D01*
X92494730Y-84074000D01*
X92479844Y-84225142D01*
X92435757Y-84370476D01*
X92435756Y-84370479D01*
X92364165Y-84504416D01*
X92267817Y-84621817D01*
X92150416Y-84718165D01*
X92016479Y-84789756D01*
X92016476Y-84789757D01*
X91871142Y-84833844D01*
X91795629Y-84841281D01*
X91757873Y-84845000D01*
X91122127Y-84845000D01*
X91084371Y-84841281D01*
X91008858Y-84833844D01*
X90863524Y-84789757D01*
X90863521Y-84789756D01*
X90729584Y-84718165D01*
X90612183Y-84621817D01*
X90515835Y-84504416D01*
X90444244Y-84370479D01*
X90444243Y-84370476D01*
X90400156Y-84225142D01*
X90385270Y-84074000D01*
X90400156Y-83922858D01*
X90444243Y-83777524D01*
X90444244Y-83777521D01*
X90515835Y-83643584D01*
X90612183Y-83526183D01*
X90729584Y-83429835D01*
X90863521Y-83358244D01*
X90863524Y-83358243D01*
X91008858Y-83314156D01*
X91084371Y-83306719D01*
X91122127Y-83303000D01*
X91757873Y-83303000D01*
X91795629Y-83306719D01*
G37*
G36*
X112008228Y-80715703D02*
G01*
X112163100Y-80779853D01*
X112302481Y-80872985D01*
X112421015Y-80991519D01*
X112514147Y-81130900D01*
X112578297Y-81285772D01*
X112611000Y-81450184D01*
X112611000Y-81617816D01*
X112578297Y-81782228D01*
X112514147Y-81937100D01*
X112421015Y-82076481D01*
X112302481Y-82195015D01*
X112163100Y-82288147D01*
X112008228Y-82352297D01*
X111843816Y-82385000D01*
X111676184Y-82385000D01*
X111511772Y-82352297D01*
X111356900Y-82288147D01*
X111217519Y-82195015D01*
X111098985Y-82076481D01*
X111005853Y-81937100D01*
X110941703Y-81782228D01*
X110909000Y-81617816D01*
X110909000Y-81450184D01*
X110941703Y-81285772D01*
X111005853Y-81130900D01*
X111098985Y-80991519D01*
X111217519Y-80872985D01*
X111356900Y-80779853D01*
X111511772Y-80715703D01*
X111676184Y-80683000D01*
X111843816Y-80683000D01*
X112008228Y-80715703D01*
G37*
G36*
X78988228Y-80715703D02*
G01*
X79143100Y-80779853D01*
X79282481Y-80872985D01*
X79401015Y-80991519D01*
X79494147Y-81130900D01*
X79558297Y-81285772D01*
X79591000Y-81450184D01*
X79591000Y-81617816D01*
X79558297Y-81782228D01*
X79494147Y-81937100D01*
X79401015Y-82076481D01*
X79282481Y-82195015D01*
X79143100Y-82288147D01*
X78988228Y-82352297D01*
X78823816Y-82385000D01*
X78656184Y-82385000D01*
X78491772Y-82352297D01*
X78336900Y-82288147D01*
X78197519Y-82195015D01*
X78078985Y-82076481D01*
X77985853Y-81937100D01*
X77921703Y-81782228D01*
X77889000Y-81617816D01*
X77889000Y-81450184D01*
X77921703Y-81285772D01*
X77985853Y-81130900D01*
X78078985Y-80991519D01*
X78197519Y-80872985D01*
X78336900Y-80779853D01*
X78491772Y-80715703D01*
X78656184Y-80683000D01*
X78823816Y-80683000D01*
X78988228Y-80715703D01*
G37*
G36*
X96768228Y-80715703D02*
G01*
X96923100Y-80779853D01*
X97062481Y-80872985D01*
X97181015Y-80991519D01*
X97274147Y-81130900D01*
X97338297Y-81285772D01*
X97371000Y-81450184D01*
X97371000Y-81617816D01*
X97338297Y-81782228D01*
X97274147Y-81937100D01*
X97181015Y-82076481D01*
X97062481Y-82195015D01*
X96923100Y-82288147D01*
X96768228Y-82352297D01*
X96603816Y-82385000D01*
X96436184Y-82385000D01*
X96271772Y-82352297D01*
X96116900Y-82288147D01*
X95977519Y-82195015D01*
X95858985Y-82076481D01*
X95765853Y-81937100D01*
X95701703Y-81782228D01*
X95669000Y-81617816D01*
X95669000Y-81450184D01*
X95701703Y-81285772D01*
X95765853Y-81130900D01*
X95858985Y-80991519D01*
X95977519Y-80872985D01*
X96116900Y-80779853D01*
X96271772Y-80715703D01*
X96436184Y-80683000D01*
X96603816Y-80683000D01*
X96768228Y-80715703D01*
G37*
G36*
X94228228Y-80715703D02*
G01*
X94383100Y-80779853D01*
X94522481Y-80872985D01*
X94641015Y-80991519D01*
X94734147Y-81130900D01*
X94798297Y-81285772D01*
X94831000Y-81450184D01*
X94831000Y-81617816D01*
X94798297Y-81782228D01*
X94734147Y-81937100D01*
X94641015Y-82076481D01*
X94522481Y-82195015D01*
X94383100Y-82288147D01*
X94228228Y-82352297D01*
X94063816Y-82385000D01*
X93896184Y-82385000D01*
X93731772Y-82352297D01*
X93576900Y-82288147D01*
X93437519Y-82195015D01*
X93318985Y-82076481D01*
X93225853Y-81937100D01*
X93161703Y-81782228D01*
X93129000Y-81617816D01*
X93129000Y-81450184D01*
X93161703Y-81285772D01*
X93225853Y-81130900D01*
X93318985Y-80991519D01*
X93437519Y-80872985D01*
X93576900Y-80779853D01*
X93731772Y-80715703D01*
X93896184Y-80683000D01*
X94063816Y-80683000D01*
X94228228Y-80715703D01*
G37*
G36*
X99415629Y-80766719D02*
G01*
X99491142Y-80774156D01*
X99636476Y-80818243D01*
X99636479Y-80818244D01*
X99770416Y-80889835D01*
X99887817Y-80986183D01*
X99984165Y-81103584D01*
X100055756Y-81237521D01*
X100055757Y-81237524D01*
X100099844Y-81382858D01*
X100114730Y-81534000D01*
X100099844Y-81685142D01*
X100055757Y-81830476D01*
X100055756Y-81830479D01*
X99984165Y-81964416D01*
X99887817Y-82081817D01*
X99770416Y-82178165D01*
X99636479Y-82249756D01*
X99636476Y-82249757D01*
X99491142Y-82293844D01*
X99415629Y-82301281D01*
X99377873Y-82305000D01*
X98742127Y-82305000D01*
X98704371Y-82301281D01*
X98628858Y-82293844D01*
X98483524Y-82249757D01*
X98483521Y-82249756D01*
X98349584Y-82178165D01*
X98232183Y-82081817D01*
X98135835Y-81964416D01*
X98064244Y-81830479D01*
X98064243Y-81830476D01*
X98020156Y-81685142D01*
X98005270Y-81534000D01*
X98020156Y-81382858D01*
X98064243Y-81237524D01*
X98064244Y-81237521D01*
X98135835Y-81103584D01*
X98232183Y-80986183D01*
X98349584Y-80889835D01*
X98483521Y-80818244D01*
X98483524Y-80818243D01*
X98628858Y-80774156D01*
X98704371Y-80766719D01*
X98742127Y-80763000D01*
X99377873Y-80763000D01*
X99415629Y-80766719D01*
G37*
G36*
X91795629Y-80766719D02*
G01*
X91871142Y-80774156D01*
X92016476Y-80818243D01*
X92016479Y-80818244D01*
X92150416Y-80889835D01*
X92267817Y-80986183D01*
X92364165Y-81103584D01*
X92435756Y-81237521D01*
X92435757Y-81237524D01*
X92479844Y-81382858D01*
X92494730Y-81534000D01*
X92479844Y-81685142D01*
X92435757Y-81830476D01*
X92435756Y-81830479D01*
X92364165Y-81964416D01*
X92267817Y-82081817D01*
X92150416Y-82178165D01*
X92016479Y-82249756D01*
X92016476Y-82249757D01*
X91871142Y-82293844D01*
X91795629Y-82301281D01*
X91757873Y-82305000D01*
X91122127Y-82305000D01*
X91084371Y-82301281D01*
X91008858Y-82293844D01*
X90863524Y-82249757D01*
X90863521Y-82249756D01*
X90729584Y-82178165D01*
X90612183Y-82081817D01*
X90515835Y-81964416D01*
X90444244Y-81830479D01*
X90444243Y-81830476D01*
X90400156Y-81685142D01*
X90385270Y-81534000D01*
X90400156Y-81382858D01*
X90444243Y-81237524D01*
X90444244Y-81237521D01*
X90515835Y-81103584D01*
X90612183Y-80986183D01*
X90729584Y-80889835D01*
X90863521Y-80818244D01*
X90863524Y-80818243D01*
X91008858Y-80774156D01*
X91084371Y-80766719D01*
X91122127Y-80763000D01*
X91757873Y-80763000D01*
X91795629Y-80766719D01*
G37*
G36*
X76555629Y-80766719D02*
G01*
X76631142Y-80774156D01*
X76776476Y-80818243D01*
X76776479Y-80818244D01*
X76910416Y-80889835D01*
X77027817Y-80986183D01*
X77124165Y-81103584D01*
X77195756Y-81237521D01*
X77195757Y-81237524D01*
X77239844Y-81382858D01*
X77254730Y-81534000D01*
X77239844Y-81685142D01*
X77195757Y-81830476D01*
X77195756Y-81830479D01*
X77124165Y-81964416D01*
X77027817Y-82081817D01*
X76910416Y-82178165D01*
X76776479Y-82249756D01*
X76776476Y-82249757D01*
X76631142Y-82293844D01*
X76555629Y-82301281D01*
X76517873Y-82305000D01*
X75882127Y-82305000D01*
X75844371Y-82301281D01*
X75768858Y-82293844D01*
X75623524Y-82249757D01*
X75623521Y-82249756D01*
X75489584Y-82178165D01*
X75372183Y-82081817D01*
X75275835Y-81964416D01*
X75204244Y-81830479D01*
X75204243Y-81830476D01*
X75160156Y-81685142D01*
X75145270Y-81534000D01*
X75160156Y-81382858D01*
X75204243Y-81237524D01*
X75204244Y-81237521D01*
X75275835Y-81103584D01*
X75372183Y-80986183D01*
X75489584Y-80889835D01*
X75623521Y-80818244D01*
X75623524Y-80818243D01*
X75768858Y-80774156D01*
X75844371Y-80766719D01*
X75882127Y-80763000D01*
X76517873Y-80763000D01*
X76555629Y-80766719D01*
G37*
G36*
X114655629Y-80766719D02*
G01*
X114731142Y-80774156D01*
X114876476Y-80818243D01*
X114876479Y-80818244D01*
X115010416Y-80889835D01*
X115127817Y-80986183D01*
X115224165Y-81103584D01*
X115295756Y-81237521D01*
X115295757Y-81237524D01*
X115339844Y-81382858D01*
X115354730Y-81534000D01*
X115339844Y-81685142D01*
X115295757Y-81830476D01*
X115295756Y-81830479D01*
X115224165Y-81964416D01*
X115127817Y-82081817D01*
X115010416Y-82178165D01*
X114876479Y-82249756D01*
X114876476Y-82249757D01*
X114731142Y-82293844D01*
X114655629Y-82301281D01*
X114617873Y-82305000D01*
X113982127Y-82305000D01*
X113944371Y-82301281D01*
X113868858Y-82293844D01*
X113723524Y-82249757D01*
X113723521Y-82249756D01*
X113589584Y-82178165D01*
X113472183Y-82081817D01*
X113375835Y-81964416D01*
X113304244Y-81830479D01*
X113304243Y-81830476D01*
X113260156Y-81685142D01*
X113245270Y-81534000D01*
X113260156Y-81382858D01*
X113304243Y-81237524D01*
X113304244Y-81237521D01*
X113375835Y-81103584D01*
X113472183Y-80986183D01*
X113589584Y-80889835D01*
X113723521Y-80818244D01*
X113723524Y-80818243D01*
X113868858Y-80774156D01*
X113944371Y-80766719D01*
X113982127Y-80763000D01*
X114617873Y-80763000D01*
X114655629Y-80766719D01*
G37*
G36*
X94228228Y-78175703D02*
G01*
X94383100Y-78239853D01*
X94522481Y-78332985D01*
X94641015Y-78451519D01*
X94734147Y-78590900D01*
X94798297Y-78745772D01*
X94831000Y-78910184D01*
X94831000Y-79077816D01*
X94798297Y-79242228D01*
X94734147Y-79397100D01*
X94641015Y-79536481D01*
X94522481Y-79655015D01*
X94383100Y-79748147D01*
X94228228Y-79812297D01*
X94063816Y-79845000D01*
X93896184Y-79845000D01*
X93731772Y-79812297D01*
X93576900Y-79748147D01*
X93437519Y-79655015D01*
X93318985Y-79536481D01*
X93225853Y-79397100D01*
X93161703Y-79242228D01*
X93129000Y-79077816D01*
X93129000Y-78910184D01*
X93161703Y-78745772D01*
X93225853Y-78590900D01*
X93318985Y-78451519D01*
X93437519Y-78332985D01*
X93576900Y-78239853D01*
X93731772Y-78175703D01*
X93896184Y-78143000D01*
X94063816Y-78143000D01*
X94228228Y-78175703D01*
G37*
G36*
X78988228Y-78175703D02*
G01*
X79143100Y-78239853D01*
X79282481Y-78332985D01*
X79401015Y-78451519D01*
X79494147Y-78590900D01*
X79558297Y-78745772D01*
X79591000Y-78910184D01*
X79591000Y-79077816D01*
X79558297Y-79242228D01*
X79494147Y-79397100D01*
X79401015Y-79536481D01*
X79282481Y-79655015D01*
X79143100Y-79748147D01*
X78988228Y-79812297D01*
X78823816Y-79845000D01*
X78656184Y-79845000D01*
X78491772Y-79812297D01*
X78336900Y-79748147D01*
X78197519Y-79655015D01*
X78078985Y-79536481D01*
X77985853Y-79397100D01*
X77921703Y-79242228D01*
X77889000Y-79077816D01*
X77889000Y-78910184D01*
X77921703Y-78745772D01*
X77985853Y-78590900D01*
X78078985Y-78451519D01*
X78197519Y-78332985D01*
X78336900Y-78239853D01*
X78491772Y-78175703D01*
X78656184Y-78143000D01*
X78823816Y-78143000D01*
X78988228Y-78175703D01*
G37*
G36*
X112008228Y-78175703D02*
G01*
X112163100Y-78239853D01*
X112302481Y-78332985D01*
X112421015Y-78451519D01*
X112514147Y-78590900D01*
X112578297Y-78745772D01*
X112611000Y-78910184D01*
X112611000Y-79077816D01*
X112578297Y-79242228D01*
X112514147Y-79397100D01*
X112421015Y-79536481D01*
X112302481Y-79655015D01*
X112163100Y-79748147D01*
X112008228Y-79812297D01*
X111843816Y-79845000D01*
X111676184Y-79845000D01*
X111511772Y-79812297D01*
X111356900Y-79748147D01*
X111217519Y-79655015D01*
X111098985Y-79536481D01*
X111005853Y-79397100D01*
X110941703Y-79242228D01*
X110909000Y-79077816D01*
X110909000Y-78910184D01*
X110941703Y-78745772D01*
X111005853Y-78590900D01*
X111098985Y-78451519D01*
X111217519Y-78332985D01*
X111356900Y-78239853D01*
X111511772Y-78175703D01*
X111676184Y-78143000D01*
X111843816Y-78143000D01*
X112008228Y-78175703D01*
G37*
G36*
X96768228Y-78175703D02*
G01*
X96923100Y-78239853D01*
X97062481Y-78332985D01*
X97181015Y-78451519D01*
X97274147Y-78590900D01*
X97338297Y-78745772D01*
X97371000Y-78910184D01*
X97371000Y-79077816D01*
X97338297Y-79242228D01*
X97274147Y-79397100D01*
X97181015Y-79536481D01*
X97062481Y-79655015D01*
X96923100Y-79748147D01*
X96768228Y-79812297D01*
X96603816Y-79845000D01*
X96436184Y-79845000D01*
X96271772Y-79812297D01*
X96116900Y-79748147D01*
X95977519Y-79655015D01*
X95858985Y-79536481D01*
X95765853Y-79397100D01*
X95701703Y-79242228D01*
X95669000Y-79077816D01*
X95669000Y-78910184D01*
X95701703Y-78745772D01*
X95765853Y-78590900D01*
X95858985Y-78451519D01*
X95977519Y-78332985D01*
X96116900Y-78239853D01*
X96271772Y-78175703D01*
X96436184Y-78143000D01*
X96603816Y-78143000D01*
X96768228Y-78175703D01*
G37*
G36*
X99415629Y-78226719D02*
G01*
X99491142Y-78234156D01*
X99636476Y-78278243D01*
X99636479Y-78278244D01*
X99770416Y-78349835D01*
X99887817Y-78446183D01*
X99984165Y-78563584D01*
X100055756Y-78697521D01*
X100055757Y-78697524D01*
X100099844Y-78842858D01*
X100114730Y-78994000D01*
X100099844Y-79145142D01*
X100055757Y-79290476D01*
X100055756Y-79290479D01*
X99984165Y-79424416D01*
X99887817Y-79541817D01*
X99770416Y-79638165D01*
X99636479Y-79709756D01*
X99636476Y-79709757D01*
X99491142Y-79753844D01*
X99415629Y-79761281D01*
X99377873Y-79765000D01*
X98742127Y-79765000D01*
X98704371Y-79761281D01*
X98628858Y-79753844D01*
X98483524Y-79709757D01*
X98483521Y-79709756D01*
X98349584Y-79638165D01*
X98232183Y-79541817D01*
X98135835Y-79424416D01*
X98064244Y-79290479D01*
X98064243Y-79290476D01*
X98020156Y-79145142D01*
X98005270Y-78994000D01*
X98020156Y-78842858D01*
X98064243Y-78697524D01*
X98064244Y-78697521D01*
X98135835Y-78563584D01*
X98232183Y-78446183D01*
X98349584Y-78349835D01*
X98483521Y-78278244D01*
X98483524Y-78278243D01*
X98628858Y-78234156D01*
X98704371Y-78226719D01*
X98742127Y-78223000D01*
X99377873Y-78223000D01*
X99415629Y-78226719D01*
G37*
G36*
X91795629Y-78226719D02*
G01*
X91871142Y-78234156D01*
X92016476Y-78278243D01*
X92016479Y-78278244D01*
X92150416Y-78349835D01*
X92267817Y-78446183D01*
X92364165Y-78563584D01*
X92435756Y-78697521D01*
X92435757Y-78697524D01*
X92479844Y-78842858D01*
X92494730Y-78994000D01*
X92479844Y-79145142D01*
X92435757Y-79290476D01*
X92435756Y-79290479D01*
X92364165Y-79424416D01*
X92267817Y-79541817D01*
X92150416Y-79638165D01*
X92016479Y-79709756D01*
X92016476Y-79709757D01*
X91871142Y-79753844D01*
X91795629Y-79761281D01*
X91757873Y-79765000D01*
X91122127Y-79765000D01*
X91084371Y-79761281D01*
X91008858Y-79753844D01*
X90863524Y-79709757D01*
X90863521Y-79709756D01*
X90729584Y-79638165D01*
X90612183Y-79541817D01*
X90515835Y-79424416D01*
X90444244Y-79290479D01*
X90444243Y-79290476D01*
X90400156Y-79145142D01*
X90385270Y-78994000D01*
X90400156Y-78842858D01*
X90444243Y-78697524D01*
X90444244Y-78697521D01*
X90515835Y-78563584D01*
X90612183Y-78446183D01*
X90729584Y-78349835D01*
X90863521Y-78278244D01*
X90863524Y-78278243D01*
X91008858Y-78234156D01*
X91084371Y-78226719D01*
X91122127Y-78223000D01*
X91757873Y-78223000D01*
X91795629Y-78226719D01*
G37*
G36*
X114655629Y-78226719D02*
G01*
X114731142Y-78234156D01*
X114876476Y-78278243D01*
X114876479Y-78278244D01*
X115010416Y-78349835D01*
X115127817Y-78446183D01*
X115224165Y-78563584D01*
X115295756Y-78697521D01*
X115295757Y-78697524D01*
X115339844Y-78842858D01*
X115354730Y-78994000D01*
X115339844Y-79145142D01*
X115295757Y-79290476D01*
X115295756Y-79290479D01*
X115224165Y-79424416D01*
X115127817Y-79541817D01*
X115010416Y-79638165D01*
X114876479Y-79709756D01*
X114876476Y-79709757D01*
X114731142Y-79753844D01*
X114655629Y-79761281D01*
X114617873Y-79765000D01*
X113982127Y-79765000D01*
X113944371Y-79761281D01*
X113868858Y-79753844D01*
X113723524Y-79709757D01*
X113723521Y-79709756D01*
X113589584Y-79638165D01*
X113472183Y-79541817D01*
X113375835Y-79424416D01*
X113304244Y-79290479D01*
X113304243Y-79290476D01*
X113260156Y-79145142D01*
X113245270Y-78994000D01*
X113260156Y-78842858D01*
X113304243Y-78697524D01*
X113304244Y-78697521D01*
X113375835Y-78563584D01*
X113472183Y-78446183D01*
X113589584Y-78349835D01*
X113723521Y-78278244D01*
X113723524Y-78278243D01*
X113868858Y-78234156D01*
X113944371Y-78226719D01*
X113982127Y-78223000D01*
X114617873Y-78223000D01*
X114655629Y-78226719D01*
G37*
G36*
X76555629Y-78226719D02*
G01*
X76631142Y-78234156D01*
X76776476Y-78278243D01*
X76776479Y-78278244D01*
X76910416Y-78349835D01*
X77027817Y-78446183D01*
X77124165Y-78563584D01*
X77195756Y-78697521D01*
X77195757Y-78697524D01*
X77239844Y-78842858D01*
X77254730Y-78994000D01*
X77239844Y-79145142D01*
X77195757Y-79290476D01*
X77195756Y-79290479D01*
X77124165Y-79424416D01*
X77027817Y-79541817D01*
X76910416Y-79638165D01*
X76776479Y-79709756D01*
X76776476Y-79709757D01*
X76631142Y-79753844D01*
X76555629Y-79761281D01*
X76517873Y-79765000D01*
X75882127Y-79765000D01*
X75844371Y-79761281D01*
X75768858Y-79753844D01*
X75623524Y-79709757D01*
X75623521Y-79709756D01*
X75489584Y-79638165D01*
X75372183Y-79541817D01*
X75275835Y-79424416D01*
X75204244Y-79290479D01*
X75204243Y-79290476D01*
X75160156Y-79145142D01*
X75145270Y-78994000D01*
X75160156Y-78842858D01*
X75204243Y-78697524D01*
X75204244Y-78697521D01*
X75275835Y-78563584D01*
X75372183Y-78446183D01*
X75489584Y-78349835D01*
X75623521Y-78278244D01*
X75623524Y-78278243D01*
X75768858Y-78234156D01*
X75844371Y-78226719D01*
X75882127Y-78223000D01*
X76517873Y-78223000D01*
X76555629Y-78226719D01*
G37*
G36*
X96768228Y-75635703D02*
G01*
X96923100Y-75699853D01*
X97062481Y-75792985D01*
X97181015Y-75911519D01*
X97274147Y-76050900D01*
X97338297Y-76205772D01*
X97371000Y-76370184D01*
X97371000Y-76537816D01*
X97338297Y-76702228D01*
X97274147Y-76857100D01*
X97181015Y-76996481D01*
X97062481Y-77115015D01*
X96923100Y-77208147D01*
X96768228Y-77272297D01*
X96603816Y-77305000D01*
X96436184Y-77305000D01*
X96271772Y-77272297D01*
X96116900Y-77208147D01*
X95977519Y-77115015D01*
X95858985Y-76996481D01*
X95765853Y-76857100D01*
X95701703Y-76702228D01*
X95669000Y-76537816D01*
X95669000Y-76370184D01*
X95701703Y-76205772D01*
X95765853Y-76050900D01*
X95858985Y-75911519D01*
X95977519Y-75792985D01*
X96116900Y-75699853D01*
X96271772Y-75635703D01*
X96436184Y-75603000D01*
X96603816Y-75603000D01*
X96768228Y-75635703D01*
G37*
G36*
X78988228Y-75635703D02*
G01*
X79143100Y-75699853D01*
X79282481Y-75792985D01*
X79401015Y-75911519D01*
X79494147Y-76050900D01*
X79558297Y-76205772D01*
X79591000Y-76370184D01*
X79591000Y-76537816D01*
X79558297Y-76702228D01*
X79494147Y-76857100D01*
X79401015Y-76996481D01*
X79282481Y-77115015D01*
X79143100Y-77208147D01*
X78988228Y-77272297D01*
X78823816Y-77305000D01*
X78656184Y-77305000D01*
X78491772Y-77272297D01*
X78336900Y-77208147D01*
X78197519Y-77115015D01*
X78078985Y-76996481D01*
X77985853Y-76857100D01*
X77921703Y-76702228D01*
X77889000Y-76537816D01*
X77889000Y-76370184D01*
X77921703Y-76205772D01*
X77985853Y-76050900D01*
X78078985Y-75911519D01*
X78197519Y-75792985D01*
X78336900Y-75699853D01*
X78491772Y-75635703D01*
X78656184Y-75603000D01*
X78823816Y-75603000D01*
X78988228Y-75635703D01*
G37*
G36*
X94228228Y-75635703D02*
G01*
X94383100Y-75699853D01*
X94522481Y-75792985D01*
X94641015Y-75911519D01*
X94734147Y-76050900D01*
X94798297Y-76205772D01*
X94831000Y-76370184D01*
X94831000Y-76537816D01*
X94798297Y-76702228D01*
X94734147Y-76857100D01*
X94641015Y-76996481D01*
X94522481Y-77115015D01*
X94383100Y-77208147D01*
X94228228Y-77272297D01*
X94063816Y-77305000D01*
X93896184Y-77305000D01*
X93731772Y-77272297D01*
X93576900Y-77208147D01*
X93437519Y-77115015D01*
X93318985Y-76996481D01*
X93225853Y-76857100D01*
X93161703Y-76702228D01*
X93129000Y-76537816D01*
X93129000Y-76370184D01*
X93161703Y-76205772D01*
X93225853Y-76050900D01*
X93318985Y-75911519D01*
X93437519Y-75792985D01*
X93576900Y-75699853D01*
X93731772Y-75635703D01*
X93896184Y-75603000D01*
X94063816Y-75603000D01*
X94228228Y-75635703D01*
G37*
G36*
X112008228Y-75635703D02*
G01*
X112163100Y-75699853D01*
X112302481Y-75792985D01*
X112421015Y-75911519D01*
X112514147Y-76050900D01*
X112578297Y-76205772D01*
X112611000Y-76370184D01*
X112611000Y-76537816D01*
X112578297Y-76702228D01*
X112514147Y-76857100D01*
X112421015Y-76996481D01*
X112302481Y-77115015D01*
X112163100Y-77208147D01*
X112008228Y-77272297D01*
X111843816Y-77305000D01*
X111676184Y-77305000D01*
X111511772Y-77272297D01*
X111356900Y-77208147D01*
X111217519Y-77115015D01*
X111098985Y-76996481D01*
X111005853Y-76857100D01*
X110941703Y-76702228D01*
X110909000Y-76537816D01*
X110909000Y-76370184D01*
X110941703Y-76205772D01*
X111005853Y-76050900D01*
X111098985Y-75911519D01*
X111217519Y-75792985D01*
X111356900Y-75699853D01*
X111511772Y-75635703D01*
X111676184Y-75603000D01*
X111843816Y-75603000D01*
X112008228Y-75635703D01*
G37*
G36*
X76555629Y-75686719D02*
G01*
X76631142Y-75694156D01*
X76776476Y-75738243D01*
X76776479Y-75738244D01*
X76910416Y-75809835D01*
X77027817Y-75906183D01*
X77124165Y-76023584D01*
X77195756Y-76157521D01*
X77195757Y-76157524D01*
X77239844Y-76302858D01*
X77254730Y-76454000D01*
X77239844Y-76605142D01*
X77195757Y-76750476D01*
X77195756Y-76750479D01*
X77124165Y-76884416D01*
X77027817Y-77001817D01*
X76910416Y-77098165D01*
X76776479Y-77169756D01*
X76776476Y-77169757D01*
X76631142Y-77213844D01*
X76555629Y-77221281D01*
X76517873Y-77225000D01*
X75882127Y-77225000D01*
X75844371Y-77221281D01*
X75768858Y-77213844D01*
X75623524Y-77169757D01*
X75623521Y-77169756D01*
X75489584Y-77098165D01*
X75372183Y-77001817D01*
X75275835Y-76884416D01*
X75204244Y-76750479D01*
X75204243Y-76750476D01*
X75160156Y-76605142D01*
X75145270Y-76454000D01*
X75160156Y-76302858D01*
X75204243Y-76157524D01*
X75204244Y-76157521D01*
X75275835Y-76023584D01*
X75372183Y-75906183D01*
X75489584Y-75809835D01*
X75623521Y-75738244D01*
X75623524Y-75738243D01*
X75768858Y-75694156D01*
X75844371Y-75686719D01*
X75882127Y-75683000D01*
X76517873Y-75683000D01*
X76555629Y-75686719D01*
G37*
G36*
X91795629Y-75686719D02*
G01*
X91871142Y-75694156D01*
X92016476Y-75738243D01*
X92016479Y-75738244D01*
X92150416Y-75809835D01*
X92267817Y-75906183D01*
X92364165Y-76023584D01*
X92435756Y-76157521D01*
X92435757Y-76157524D01*
X92479844Y-76302858D01*
X92494730Y-76454000D01*
X92479844Y-76605142D01*
X92435757Y-76750476D01*
X92435756Y-76750479D01*
X92364165Y-76884416D01*
X92267817Y-77001817D01*
X92150416Y-77098165D01*
X92016479Y-77169756D01*
X92016476Y-77169757D01*
X91871142Y-77213844D01*
X91795629Y-77221281D01*
X91757873Y-77225000D01*
X91122127Y-77225000D01*
X91084371Y-77221281D01*
X91008858Y-77213844D01*
X90863524Y-77169757D01*
X90863521Y-77169756D01*
X90729584Y-77098165D01*
X90612183Y-77001817D01*
X90515835Y-76884416D01*
X90444244Y-76750479D01*
X90444243Y-76750476D01*
X90400156Y-76605142D01*
X90385270Y-76454000D01*
X90400156Y-76302858D01*
X90444243Y-76157524D01*
X90444244Y-76157521D01*
X90515835Y-76023584D01*
X90612183Y-75906183D01*
X90729584Y-75809835D01*
X90863521Y-75738244D01*
X90863524Y-75738243D01*
X91008858Y-75694156D01*
X91084371Y-75686719D01*
X91122127Y-75683000D01*
X91757873Y-75683000D01*
X91795629Y-75686719D01*
G37*
G36*
X99415629Y-75686719D02*
G01*
X99491142Y-75694156D01*
X99636476Y-75738243D01*
X99636479Y-75738244D01*
X99770416Y-75809835D01*
X99887817Y-75906183D01*
X99984165Y-76023584D01*
X100055756Y-76157521D01*
X100055757Y-76157524D01*
X100099844Y-76302858D01*
X100114730Y-76454000D01*
X100099844Y-76605142D01*
X100055757Y-76750476D01*
X100055756Y-76750479D01*
X99984165Y-76884416D01*
X99887817Y-77001817D01*
X99770416Y-77098165D01*
X99636479Y-77169756D01*
X99636476Y-77169757D01*
X99491142Y-77213844D01*
X99415629Y-77221281D01*
X99377873Y-77225000D01*
X98742127Y-77225000D01*
X98704371Y-77221281D01*
X98628858Y-77213844D01*
X98483524Y-77169757D01*
X98483521Y-77169756D01*
X98349584Y-77098165D01*
X98232183Y-77001817D01*
X98135835Y-76884416D01*
X98064244Y-76750479D01*
X98064243Y-76750476D01*
X98020156Y-76605142D01*
X98005270Y-76454000D01*
X98020156Y-76302858D01*
X98064243Y-76157524D01*
X98064244Y-76157521D01*
X98135835Y-76023584D01*
X98232183Y-75906183D01*
X98349584Y-75809835D01*
X98483521Y-75738244D01*
X98483524Y-75738243D01*
X98628858Y-75694156D01*
X98704371Y-75686719D01*
X98742127Y-75683000D01*
X99377873Y-75683000D01*
X99415629Y-75686719D01*
G37*
G36*
X114655629Y-75686719D02*
G01*
X114731142Y-75694156D01*
X114876476Y-75738243D01*
X114876479Y-75738244D01*
X115010416Y-75809835D01*
X115127817Y-75906183D01*
X115224165Y-76023584D01*
X115295756Y-76157521D01*
X115295757Y-76157524D01*
X115339844Y-76302858D01*
X115354730Y-76454000D01*
X115339844Y-76605142D01*
X115295757Y-76750476D01*
X115295756Y-76750479D01*
X115224165Y-76884416D01*
X115127817Y-77001817D01*
X115010416Y-77098165D01*
X114876479Y-77169756D01*
X114876476Y-77169757D01*
X114731142Y-77213844D01*
X114655629Y-77221281D01*
X114617873Y-77225000D01*
X113982127Y-77225000D01*
X113944371Y-77221281D01*
X113868858Y-77213844D01*
X113723524Y-77169757D01*
X113723521Y-77169756D01*
X113589584Y-77098165D01*
X113472183Y-77001817D01*
X113375835Y-76884416D01*
X113304244Y-76750479D01*
X113304243Y-76750476D01*
X113260156Y-76605142D01*
X113245270Y-76454000D01*
X113260156Y-76302858D01*
X113304243Y-76157524D01*
X113304244Y-76157521D01*
X113375835Y-76023584D01*
X113472183Y-75906183D01*
X113589584Y-75809835D01*
X113723521Y-75738244D01*
X113723524Y-75738243D01*
X113868858Y-75694156D01*
X113944371Y-75686719D01*
X113982127Y-75683000D01*
X114617873Y-75683000D01*
X114655629Y-75686719D01*
G37*
G36*
X94228228Y-73095703D02*
G01*
X94383100Y-73159853D01*
X94522481Y-73252985D01*
X94641015Y-73371519D01*
X94734147Y-73510900D01*
X94798297Y-73665772D01*
X94831000Y-73830184D01*
X94831000Y-73997816D01*
X94798297Y-74162228D01*
X94734147Y-74317100D01*
X94641015Y-74456481D01*
X94522481Y-74575015D01*
X94383100Y-74668147D01*
X94228228Y-74732297D01*
X94063816Y-74765000D01*
X93896184Y-74765000D01*
X93731772Y-74732297D01*
X93576900Y-74668147D01*
X93437519Y-74575015D01*
X93318985Y-74456481D01*
X93225853Y-74317100D01*
X93161703Y-74162228D01*
X93129000Y-73997816D01*
X93129000Y-73830184D01*
X93161703Y-73665772D01*
X93225853Y-73510900D01*
X93318985Y-73371519D01*
X93437519Y-73252985D01*
X93576900Y-73159853D01*
X93731772Y-73095703D01*
X93896184Y-73063000D01*
X94063816Y-73063000D01*
X94228228Y-73095703D01*
G37*
G36*
X96768228Y-73095703D02*
G01*
X96923100Y-73159853D01*
X97062481Y-73252985D01*
X97181015Y-73371519D01*
X97274147Y-73510900D01*
X97338297Y-73665772D01*
X97371000Y-73830184D01*
X97371000Y-73997816D01*
X97338297Y-74162228D01*
X97274147Y-74317100D01*
X97181015Y-74456481D01*
X97062481Y-74575015D01*
X96923100Y-74668147D01*
X96768228Y-74732297D01*
X96603816Y-74765000D01*
X96436184Y-74765000D01*
X96271772Y-74732297D01*
X96116900Y-74668147D01*
X95977519Y-74575015D01*
X95858985Y-74456481D01*
X95765853Y-74317100D01*
X95701703Y-74162228D01*
X95669000Y-73997816D01*
X95669000Y-73830184D01*
X95701703Y-73665772D01*
X95765853Y-73510900D01*
X95858985Y-73371519D01*
X95977519Y-73252985D01*
X96116900Y-73159853D01*
X96271772Y-73095703D01*
X96436184Y-73063000D01*
X96603816Y-73063000D01*
X96768228Y-73095703D01*
G37*
G36*
X112008228Y-73095703D02*
G01*
X112163100Y-73159853D01*
X112302481Y-73252985D01*
X112421015Y-73371519D01*
X112514147Y-73510900D01*
X112578297Y-73665772D01*
X112611000Y-73830184D01*
X112611000Y-73997816D01*
X112578297Y-74162228D01*
X112514147Y-74317100D01*
X112421015Y-74456481D01*
X112302481Y-74575015D01*
X112163100Y-74668147D01*
X112008228Y-74732297D01*
X111843816Y-74765000D01*
X111676184Y-74765000D01*
X111511772Y-74732297D01*
X111356900Y-74668147D01*
X111217519Y-74575015D01*
X111098985Y-74456481D01*
X111005853Y-74317100D01*
X110941703Y-74162228D01*
X110909000Y-73997816D01*
X110909000Y-73830184D01*
X110941703Y-73665772D01*
X111005853Y-73510900D01*
X111098985Y-73371519D01*
X111217519Y-73252985D01*
X111356900Y-73159853D01*
X111511772Y-73095703D01*
X111676184Y-73063000D01*
X111843816Y-73063000D01*
X112008228Y-73095703D01*
G37*
G36*
X78988228Y-73095703D02*
G01*
X79143100Y-73159853D01*
X79282481Y-73252985D01*
X79401015Y-73371519D01*
X79494147Y-73510900D01*
X79558297Y-73665772D01*
X79591000Y-73830184D01*
X79591000Y-73997816D01*
X79558297Y-74162228D01*
X79494147Y-74317100D01*
X79401015Y-74456481D01*
X79282481Y-74575015D01*
X79143100Y-74668147D01*
X78988228Y-74732297D01*
X78823816Y-74765000D01*
X78656184Y-74765000D01*
X78491772Y-74732297D01*
X78336900Y-74668147D01*
X78197519Y-74575015D01*
X78078985Y-74456481D01*
X77985853Y-74317100D01*
X77921703Y-74162228D01*
X77889000Y-73997816D01*
X77889000Y-73830184D01*
X77921703Y-73665772D01*
X77985853Y-73510900D01*
X78078985Y-73371519D01*
X78197519Y-73252985D01*
X78336900Y-73159853D01*
X78491772Y-73095703D01*
X78656184Y-73063000D01*
X78823816Y-73063000D01*
X78988228Y-73095703D01*
G37*
G36*
X114655629Y-73146719D02*
G01*
X114731142Y-73154156D01*
X114876476Y-73198243D01*
X114876479Y-73198244D01*
X115010416Y-73269835D01*
X115127817Y-73366183D01*
X115224165Y-73483584D01*
X115295756Y-73617521D01*
X115295757Y-73617524D01*
X115339844Y-73762858D01*
X115354730Y-73914000D01*
X115339844Y-74065142D01*
X115295757Y-74210476D01*
X115295756Y-74210479D01*
X115224165Y-74344416D01*
X115127817Y-74461817D01*
X115010416Y-74558165D01*
X114876479Y-74629756D01*
X114876476Y-74629757D01*
X114731142Y-74673844D01*
X114655629Y-74681281D01*
X114617873Y-74685000D01*
X113982127Y-74685000D01*
X113944371Y-74681281D01*
X113868858Y-74673844D01*
X113723524Y-74629757D01*
X113723521Y-74629756D01*
X113589584Y-74558165D01*
X113472183Y-74461817D01*
X113375835Y-74344416D01*
X113304244Y-74210479D01*
X113304243Y-74210476D01*
X113260156Y-74065142D01*
X113245270Y-73914000D01*
X113260156Y-73762858D01*
X113304243Y-73617524D01*
X113304244Y-73617521D01*
X113375835Y-73483584D01*
X113472183Y-73366183D01*
X113589584Y-73269835D01*
X113723521Y-73198244D01*
X113723524Y-73198243D01*
X113868858Y-73154156D01*
X113944371Y-73146719D01*
X113982127Y-73143000D01*
X114617873Y-73143000D01*
X114655629Y-73146719D01*
G37*
G36*
X91795629Y-73146719D02*
G01*
X91871142Y-73154156D01*
X92016476Y-73198243D01*
X92016479Y-73198244D01*
X92150416Y-73269835D01*
X92267817Y-73366183D01*
X92364165Y-73483584D01*
X92435756Y-73617521D01*
X92435757Y-73617524D01*
X92479844Y-73762858D01*
X92494730Y-73914000D01*
X92479844Y-74065142D01*
X92435757Y-74210476D01*
X92435756Y-74210479D01*
X92364165Y-74344416D01*
X92267817Y-74461817D01*
X92150416Y-74558165D01*
X92016479Y-74629756D01*
X92016476Y-74629757D01*
X91871142Y-74673844D01*
X91795629Y-74681281D01*
X91757873Y-74685000D01*
X91122127Y-74685000D01*
X91084371Y-74681281D01*
X91008858Y-74673844D01*
X90863524Y-74629757D01*
X90863521Y-74629756D01*
X90729584Y-74558165D01*
X90612183Y-74461817D01*
X90515835Y-74344416D01*
X90444244Y-74210479D01*
X90444243Y-74210476D01*
X90400156Y-74065142D01*
X90385270Y-73914000D01*
X90400156Y-73762858D01*
X90444243Y-73617524D01*
X90444244Y-73617521D01*
X90515835Y-73483584D01*
X90612183Y-73366183D01*
X90729584Y-73269835D01*
X90863521Y-73198244D01*
X90863524Y-73198243D01*
X91008858Y-73154156D01*
X91084371Y-73146719D01*
X91122127Y-73143000D01*
X91757873Y-73143000D01*
X91795629Y-73146719D01*
G37*
G36*
X99415629Y-73146719D02*
G01*
X99491142Y-73154156D01*
X99636476Y-73198243D01*
X99636479Y-73198244D01*
X99770416Y-73269835D01*
X99887817Y-73366183D01*
X99984165Y-73483584D01*
X100055756Y-73617521D01*
X100055757Y-73617524D01*
X100099844Y-73762858D01*
X100114730Y-73914000D01*
X100099844Y-74065142D01*
X100055757Y-74210476D01*
X100055756Y-74210479D01*
X99984165Y-74344416D01*
X99887817Y-74461817D01*
X99770416Y-74558165D01*
X99636479Y-74629756D01*
X99636476Y-74629757D01*
X99491142Y-74673844D01*
X99415629Y-74681281D01*
X99377873Y-74685000D01*
X98742127Y-74685000D01*
X98704371Y-74681281D01*
X98628858Y-74673844D01*
X98483524Y-74629757D01*
X98483521Y-74629756D01*
X98349584Y-74558165D01*
X98232183Y-74461817D01*
X98135835Y-74344416D01*
X98064244Y-74210479D01*
X98064243Y-74210476D01*
X98020156Y-74065142D01*
X98005270Y-73914000D01*
X98020156Y-73762858D01*
X98064243Y-73617524D01*
X98064244Y-73617521D01*
X98135835Y-73483584D01*
X98232183Y-73366183D01*
X98349584Y-73269835D01*
X98483521Y-73198244D01*
X98483524Y-73198243D01*
X98628858Y-73154156D01*
X98704371Y-73146719D01*
X98742127Y-73143000D01*
X99377873Y-73143000D01*
X99415629Y-73146719D01*
G37*
G36*
X76555629Y-73146719D02*
G01*
X76631142Y-73154156D01*
X76776476Y-73198243D01*
X76776479Y-73198244D01*
X76910416Y-73269835D01*
X77027817Y-73366183D01*
X77124165Y-73483584D01*
X77195756Y-73617521D01*
X77195757Y-73617524D01*
X77239844Y-73762858D01*
X77254730Y-73914000D01*
X77239844Y-74065142D01*
X77195757Y-74210476D01*
X77195756Y-74210479D01*
X77124165Y-74344416D01*
X77027817Y-74461817D01*
X76910416Y-74558165D01*
X76776479Y-74629756D01*
X76776476Y-74629757D01*
X76631142Y-74673844D01*
X76555629Y-74681281D01*
X76517873Y-74685000D01*
X75882127Y-74685000D01*
X75844371Y-74681281D01*
X75768858Y-74673844D01*
X75623524Y-74629757D01*
X75623521Y-74629756D01*
X75489584Y-74558165D01*
X75372183Y-74461817D01*
X75275835Y-74344416D01*
X75204244Y-74210479D01*
X75204243Y-74210476D01*
X75160156Y-74065142D01*
X75145270Y-73914000D01*
X75160156Y-73762858D01*
X75204243Y-73617524D01*
X75204244Y-73617521D01*
X75275835Y-73483584D01*
X75372183Y-73366183D01*
X75489584Y-73269835D01*
X75623521Y-73198244D01*
X75623524Y-73198243D01*
X75768858Y-73154156D01*
X75844371Y-73146719D01*
X75882127Y-73143000D01*
X76517873Y-73143000D01*
X76555629Y-73146719D01*
G37*
G36*
X112008228Y-70555703D02*
G01*
X112163100Y-70619853D01*
X112302481Y-70712985D01*
X112421015Y-70831519D01*
X112514147Y-70970900D01*
X112578297Y-71125772D01*
X112611000Y-71290184D01*
X112611000Y-71457816D01*
X112578297Y-71622228D01*
X112514147Y-71777100D01*
X112421015Y-71916481D01*
X112302481Y-72035015D01*
X112163100Y-72128147D01*
X112008228Y-72192297D01*
X111843816Y-72225000D01*
X111676184Y-72225000D01*
X111511772Y-72192297D01*
X111356900Y-72128147D01*
X111217519Y-72035015D01*
X111098985Y-71916481D01*
X111005853Y-71777100D01*
X110941703Y-71622228D01*
X110909000Y-71457816D01*
X110909000Y-71290184D01*
X110941703Y-71125772D01*
X111005853Y-70970900D01*
X111098985Y-70831519D01*
X111217519Y-70712985D01*
X111356900Y-70619853D01*
X111511772Y-70555703D01*
X111676184Y-70523000D01*
X111843816Y-70523000D01*
X112008228Y-70555703D01*
G37*
G36*
X78988228Y-70555703D02*
G01*
X79143100Y-70619853D01*
X79282481Y-70712985D01*
X79401015Y-70831519D01*
X79494147Y-70970900D01*
X79558297Y-71125772D01*
X79591000Y-71290184D01*
X79591000Y-71457816D01*
X79558297Y-71622228D01*
X79494147Y-71777100D01*
X79401015Y-71916481D01*
X79282481Y-72035015D01*
X79143100Y-72128147D01*
X78988228Y-72192297D01*
X78823816Y-72225000D01*
X78656184Y-72225000D01*
X78491772Y-72192297D01*
X78336900Y-72128147D01*
X78197519Y-72035015D01*
X78078985Y-71916481D01*
X77985853Y-71777100D01*
X77921703Y-71622228D01*
X77889000Y-71457816D01*
X77889000Y-71290184D01*
X77921703Y-71125772D01*
X77985853Y-70970900D01*
X78078985Y-70831519D01*
X78197519Y-70712985D01*
X78336900Y-70619853D01*
X78491772Y-70555703D01*
X78656184Y-70523000D01*
X78823816Y-70523000D01*
X78988228Y-70555703D01*
G37*
G36*
X94228228Y-70555703D02*
G01*
X94383100Y-70619853D01*
X94522481Y-70712985D01*
X94641015Y-70831519D01*
X94734147Y-70970900D01*
X94798297Y-71125772D01*
X94831000Y-71290184D01*
X94831000Y-71457816D01*
X94798297Y-71622228D01*
X94734147Y-71777100D01*
X94641015Y-71916481D01*
X94522481Y-72035015D01*
X94383100Y-72128147D01*
X94228228Y-72192297D01*
X94063816Y-72225000D01*
X93896184Y-72225000D01*
X93731772Y-72192297D01*
X93576900Y-72128147D01*
X93437519Y-72035015D01*
X93318985Y-71916481D01*
X93225853Y-71777100D01*
X93161703Y-71622228D01*
X93129000Y-71457816D01*
X93129000Y-71290184D01*
X93161703Y-71125772D01*
X93225853Y-70970900D01*
X93318985Y-70831519D01*
X93437519Y-70712985D01*
X93576900Y-70619853D01*
X93731772Y-70555703D01*
X93896184Y-70523000D01*
X94063816Y-70523000D01*
X94228228Y-70555703D01*
G37*
G36*
X96768228Y-70555703D02*
G01*
X96923100Y-70619853D01*
X97062481Y-70712985D01*
X97181015Y-70831519D01*
X97274147Y-70970900D01*
X97338297Y-71125772D01*
X97371000Y-71290184D01*
X97371000Y-71457816D01*
X97338297Y-71622228D01*
X97274147Y-71777100D01*
X97181015Y-71916481D01*
X97062481Y-72035015D01*
X96923100Y-72128147D01*
X96768228Y-72192297D01*
X96603816Y-72225000D01*
X96436184Y-72225000D01*
X96271772Y-72192297D01*
X96116900Y-72128147D01*
X95977519Y-72035015D01*
X95858985Y-71916481D01*
X95765853Y-71777100D01*
X95701703Y-71622228D01*
X95669000Y-71457816D01*
X95669000Y-71290184D01*
X95701703Y-71125772D01*
X95765853Y-70970900D01*
X95858985Y-70831519D01*
X95977519Y-70712985D01*
X96116900Y-70619853D01*
X96271772Y-70555703D01*
X96436184Y-70523000D01*
X96603816Y-70523000D01*
X96768228Y-70555703D01*
G37*
G36*
X114655629Y-70606719D02*
G01*
X114731142Y-70614156D01*
X114876476Y-70658243D01*
X114876479Y-70658244D01*
X115010416Y-70729835D01*
X115127817Y-70826183D01*
X115224165Y-70943584D01*
X115295756Y-71077521D01*
X115295757Y-71077524D01*
X115339844Y-71222858D01*
X115354730Y-71374000D01*
X115339844Y-71525142D01*
X115295757Y-71670476D01*
X115295756Y-71670479D01*
X115224165Y-71804416D01*
X115127817Y-71921817D01*
X115010416Y-72018165D01*
X114876479Y-72089756D01*
X114876476Y-72089757D01*
X114731142Y-72133844D01*
X114655629Y-72141281D01*
X114617873Y-72145000D01*
X113982127Y-72145000D01*
X113944371Y-72141281D01*
X113868858Y-72133844D01*
X113723524Y-72089757D01*
X113723521Y-72089756D01*
X113589584Y-72018165D01*
X113472183Y-71921817D01*
X113375835Y-71804416D01*
X113304244Y-71670479D01*
X113304243Y-71670476D01*
X113260156Y-71525142D01*
X113245270Y-71374000D01*
X113260156Y-71222858D01*
X113304243Y-71077524D01*
X113304244Y-71077521D01*
X113375835Y-70943584D01*
X113472183Y-70826183D01*
X113589584Y-70729835D01*
X113723521Y-70658244D01*
X113723524Y-70658243D01*
X113868858Y-70614156D01*
X113944371Y-70606719D01*
X113982127Y-70603000D01*
X114617873Y-70603000D01*
X114655629Y-70606719D01*
G37*
G36*
X91795629Y-70606719D02*
G01*
X91871142Y-70614156D01*
X92016476Y-70658243D01*
X92016479Y-70658244D01*
X92150416Y-70729835D01*
X92267817Y-70826183D01*
X92364165Y-70943584D01*
X92435756Y-71077521D01*
X92435757Y-71077524D01*
X92479844Y-71222858D01*
X92494730Y-71374000D01*
X92479844Y-71525142D01*
X92435757Y-71670476D01*
X92435756Y-71670479D01*
X92364165Y-71804416D01*
X92267817Y-71921817D01*
X92150416Y-72018165D01*
X92016479Y-72089756D01*
X92016476Y-72089757D01*
X91871142Y-72133844D01*
X91795629Y-72141281D01*
X91757873Y-72145000D01*
X91122127Y-72145000D01*
X91084371Y-72141281D01*
X91008858Y-72133844D01*
X90863524Y-72089757D01*
X90863521Y-72089756D01*
X90729584Y-72018165D01*
X90612183Y-71921817D01*
X90515835Y-71804416D01*
X90444244Y-71670479D01*
X90444243Y-71670476D01*
X90400156Y-71525142D01*
X90385270Y-71374000D01*
X90400156Y-71222858D01*
X90444243Y-71077524D01*
X90444244Y-71077521D01*
X90515835Y-70943584D01*
X90612183Y-70826183D01*
X90729584Y-70729835D01*
X90863521Y-70658244D01*
X90863524Y-70658243D01*
X91008858Y-70614156D01*
X91084371Y-70606719D01*
X91122127Y-70603000D01*
X91757873Y-70603000D01*
X91795629Y-70606719D01*
G37*
G36*
X76555629Y-70606719D02*
G01*
X76631142Y-70614156D01*
X76776476Y-70658243D01*
X76776479Y-70658244D01*
X76910416Y-70729835D01*
X77027817Y-70826183D01*
X77124165Y-70943584D01*
X77195756Y-71077521D01*
X77195757Y-71077524D01*
X77239844Y-71222858D01*
X77254730Y-71374000D01*
X77239844Y-71525142D01*
X77195757Y-71670476D01*
X77195756Y-71670479D01*
X77124165Y-71804416D01*
X77027817Y-71921817D01*
X76910416Y-72018165D01*
X76776479Y-72089756D01*
X76776476Y-72089757D01*
X76631142Y-72133844D01*
X76555629Y-72141281D01*
X76517873Y-72145000D01*
X75882127Y-72145000D01*
X75844371Y-72141281D01*
X75768858Y-72133844D01*
X75623524Y-72089757D01*
X75623521Y-72089756D01*
X75489584Y-72018165D01*
X75372183Y-71921817D01*
X75275835Y-71804416D01*
X75204244Y-71670479D01*
X75204243Y-71670476D01*
X75160156Y-71525142D01*
X75145270Y-71374000D01*
X75160156Y-71222858D01*
X75204243Y-71077524D01*
X75204244Y-71077521D01*
X75275835Y-70943584D01*
X75372183Y-70826183D01*
X75489584Y-70729835D01*
X75623521Y-70658244D01*
X75623524Y-70658243D01*
X75768858Y-70614156D01*
X75844371Y-70606719D01*
X75882127Y-70603000D01*
X76517873Y-70603000D01*
X76555629Y-70606719D01*
G37*
G36*
X99415629Y-70606719D02*
G01*
X99491142Y-70614156D01*
X99636476Y-70658243D01*
X99636479Y-70658244D01*
X99770416Y-70729835D01*
X99887817Y-70826183D01*
X99984165Y-70943584D01*
X100055756Y-71077521D01*
X100055757Y-71077524D01*
X100099844Y-71222858D01*
X100114730Y-71374000D01*
X100099844Y-71525142D01*
X100055757Y-71670476D01*
X100055756Y-71670479D01*
X99984165Y-71804416D01*
X99887817Y-71921817D01*
X99770416Y-72018165D01*
X99636479Y-72089756D01*
X99636476Y-72089757D01*
X99491142Y-72133844D01*
X99415629Y-72141281D01*
X99377873Y-72145000D01*
X98742127Y-72145000D01*
X98704371Y-72141281D01*
X98628858Y-72133844D01*
X98483524Y-72089757D01*
X98483521Y-72089756D01*
X98349584Y-72018165D01*
X98232183Y-71921817D01*
X98135835Y-71804416D01*
X98064244Y-71670479D01*
X98064243Y-71670476D01*
X98020156Y-71525142D01*
X98005270Y-71374000D01*
X98020156Y-71222858D01*
X98064243Y-71077524D01*
X98064244Y-71077521D01*
X98135835Y-70943584D01*
X98232183Y-70826183D01*
X98349584Y-70729835D01*
X98483521Y-70658244D01*
X98483524Y-70658243D01*
X98628858Y-70614156D01*
X98704371Y-70606719D01*
X98742127Y-70603000D01*
X99377873Y-70603000D01*
X99415629Y-70606719D01*
G37*
G36*
X112008228Y-68015703D02*
G01*
X112163100Y-68079853D01*
X112302481Y-68172985D01*
X112421015Y-68291519D01*
X112514147Y-68430900D01*
X112578297Y-68585772D01*
X112611000Y-68750184D01*
X112611000Y-68917816D01*
X112578297Y-69082228D01*
X112514147Y-69237100D01*
X112421015Y-69376481D01*
X112302481Y-69495015D01*
X112163100Y-69588147D01*
X112008228Y-69652297D01*
X111843816Y-69685000D01*
X111676184Y-69685000D01*
X111511772Y-69652297D01*
X111356900Y-69588147D01*
X111217519Y-69495015D01*
X111098985Y-69376481D01*
X111005853Y-69237100D01*
X110941703Y-69082228D01*
X110909000Y-68917816D01*
X110909000Y-68750184D01*
X110941703Y-68585772D01*
X111005853Y-68430900D01*
X111098985Y-68291519D01*
X111217519Y-68172985D01*
X111356900Y-68079853D01*
X111511772Y-68015703D01*
X111676184Y-67983000D01*
X111843816Y-67983000D01*
X112008228Y-68015703D01*
G37*
G36*
X96768228Y-68015703D02*
G01*
X96923100Y-68079853D01*
X97062481Y-68172985D01*
X97181015Y-68291519D01*
X97274147Y-68430900D01*
X97338297Y-68585772D01*
X97371000Y-68750184D01*
X97371000Y-68917816D01*
X97338297Y-69082228D01*
X97274147Y-69237100D01*
X97181015Y-69376481D01*
X97062481Y-69495015D01*
X96923100Y-69588147D01*
X96768228Y-69652297D01*
X96603816Y-69685000D01*
X96436184Y-69685000D01*
X96271772Y-69652297D01*
X96116900Y-69588147D01*
X95977519Y-69495015D01*
X95858985Y-69376481D01*
X95765853Y-69237100D01*
X95701703Y-69082228D01*
X95669000Y-68917816D01*
X95669000Y-68750184D01*
X95701703Y-68585772D01*
X95765853Y-68430900D01*
X95858985Y-68291519D01*
X95977519Y-68172985D01*
X96116900Y-68079853D01*
X96271772Y-68015703D01*
X96436184Y-67983000D01*
X96603816Y-67983000D01*
X96768228Y-68015703D01*
G37*
G36*
X78988228Y-68015703D02*
G01*
X79143100Y-68079853D01*
X79282481Y-68172985D01*
X79401015Y-68291519D01*
X79494147Y-68430900D01*
X79558297Y-68585772D01*
X79591000Y-68750184D01*
X79591000Y-68917816D01*
X79558297Y-69082228D01*
X79494147Y-69237100D01*
X79401015Y-69376481D01*
X79282481Y-69495015D01*
X79143100Y-69588147D01*
X78988228Y-69652297D01*
X78823816Y-69685000D01*
X78656184Y-69685000D01*
X78491772Y-69652297D01*
X78336900Y-69588147D01*
X78197519Y-69495015D01*
X78078985Y-69376481D01*
X77985853Y-69237100D01*
X77921703Y-69082228D01*
X77889000Y-68917816D01*
X77889000Y-68750184D01*
X77921703Y-68585772D01*
X77985853Y-68430900D01*
X78078985Y-68291519D01*
X78197519Y-68172985D01*
X78336900Y-68079853D01*
X78491772Y-68015703D01*
X78656184Y-67983000D01*
X78823816Y-67983000D01*
X78988228Y-68015703D01*
G37*
G36*
X94228228Y-68015703D02*
G01*
X94383100Y-68079853D01*
X94522481Y-68172985D01*
X94641015Y-68291519D01*
X94734147Y-68430900D01*
X94798297Y-68585772D01*
X94831000Y-68750184D01*
X94831000Y-68917816D01*
X94798297Y-69082228D01*
X94734147Y-69237100D01*
X94641015Y-69376481D01*
X94522481Y-69495015D01*
X94383100Y-69588147D01*
X94228228Y-69652297D01*
X94063816Y-69685000D01*
X93896184Y-69685000D01*
X93731772Y-69652297D01*
X93576900Y-69588147D01*
X93437519Y-69495015D01*
X93318985Y-69376481D01*
X93225853Y-69237100D01*
X93161703Y-69082228D01*
X93129000Y-68917816D01*
X93129000Y-68750184D01*
X93161703Y-68585772D01*
X93225853Y-68430900D01*
X93318985Y-68291519D01*
X93437519Y-68172985D01*
X93576900Y-68079853D01*
X93731772Y-68015703D01*
X93896184Y-67983000D01*
X94063816Y-67983000D01*
X94228228Y-68015703D01*
G37*
G36*
X114655629Y-68066719D02*
G01*
X114731142Y-68074156D01*
X114876476Y-68118243D01*
X114876479Y-68118244D01*
X115010416Y-68189835D01*
X115127817Y-68286183D01*
X115224165Y-68403584D01*
X115295756Y-68537521D01*
X115295757Y-68537524D01*
X115339844Y-68682858D01*
X115354730Y-68834000D01*
X115339844Y-68985142D01*
X115295757Y-69130476D01*
X115295756Y-69130479D01*
X115224165Y-69264416D01*
X115127817Y-69381817D01*
X115010416Y-69478165D01*
X114876479Y-69549756D01*
X114876476Y-69549757D01*
X114731142Y-69593844D01*
X114655629Y-69601281D01*
X114617873Y-69605000D01*
X113982127Y-69605000D01*
X113944371Y-69601281D01*
X113868858Y-69593844D01*
X113723524Y-69549757D01*
X113723521Y-69549756D01*
X113589584Y-69478165D01*
X113472183Y-69381817D01*
X113375835Y-69264416D01*
X113304244Y-69130479D01*
X113304243Y-69130476D01*
X113260156Y-68985142D01*
X113245270Y-68834000D01*
X113260156Y-68682858D01*
X113304243Y-68537524D01*
X113304244Y-68537521D01*
X113375835Y-68403584D01*
X113472183Y-68286183D01*
X113589584Y-68189835D01*
X113723521Y-68118244D01*
X113723524Y-68118243D01*
X113868858Y-68074156D01*
X113944371Y-68066719D01*
X113982127Y-68063000D01*
X114617873Y-68063000D01*
X114655629Y-68066719D01*
G37*
G36*
X99415629Y-68066719D02*
G01*
X99491142Y-68074156D01*
X99636476Y-68118243D01*
X99636479Y-68118244D01*
X99770416Y-68189835D01*
X99887817Y-68286183D01*
X99984165Y-68403584D01*
X100055756Y-68537521D01*
X100055757Y-68537524D01*
X100099844Y-68682858D01*
X100114730Y-68834000D01*
X100099844Y-68985142D01*
X100055757Y-69130476D01*
X100055756Y-69130479D01*
X99984165Y-69264416D01*
X99887817Y-69381817D01*
X99770416Y-69478165D01*
X99636479Y-69549756D01*
X99636476Y-69549757D01*
X99491142Y-69593844D01*
X99415629Y-69601281D01*
X99377873Y-69605000D01*
X98742127Y-69605000D01*
X98704371Y-69601281D01*
X98628858Y-69593844D01*
X98483524Y-69549757D01*
X98483521Y-69549756D01*
X98349584Y-69478165D01*
X98232183Y-69381817D01*
X98135835Y-69264416D01*
X98064244Y-69130479D01*
X98064243Y-69130476D01*
X98020156Y-68985142D01*
X98005270Y-68834000D01*
X98020156Y-68682858D01*
X98064243Y-68537524D01*
X98064244Y-68537521D01*
X98135835Y-68403584D01*
X98232183Y-68286183D01*
X98349584Y-68189835D01*
X98483521Y-68118244D01*
X98483524Y-68118243D01*
X98628858Y-68074156D01*
X98704371Y-68066719D01*
X98742127Y-68063000D01*
X99377873Y-68063000D01*
X99415629Y-68066719D01*
G37*
G36*
X76555629Y-68066719D02*
G01*
X76631142Y-68074156D01*
X76776476Y-68118243D01*
X76776479Y-68118244D01*
X76910416Y-68189835D01*
X77027817Y-68286183D01*
X77124165Y-68403584D01*
X77195756Y-68537521D01*
X77195757Y-68537524D01*
X77239844Y-68682858D01*
X77254730Y-68834000D01*
X77239844Y-68985142D01*
X77195757Y-69130476D01*
X77195756Y-69130479D01*
X77124165Y-69264416D01*
X77027817Y-69381817D01*
X76910416Y-69478165D01*
X76776479Y-69549756D01*
X76776476Y-69549757D01*
X76631142Y-69593844D01*
X76555629Y-69601281D01*
X76517873Y-69605000D01*
X75882127Y-69605000D01*
X75844371Y-69601281D01*
X75768858Y-69593844D01*
X75623524Y-69549757D01*
X75623521Y-69549756D01*
X75489584Y-69478165D01*
X75372183Y-69381817D01*
X75275835Y-69264416D01*
X75204244Y-69130479D01*
X75204243Y-69130476D01*
X75160156Y-68985142D01*
X75145270Y-68834000D01*
X75160156Y-68682858D01*
X75204243Y-68537524D01*
X75204244Y-68537521D01*
X75275835Y-68403584D01*
X75372183Y-68286183D01*
X75489584Y-68189835D01*
X75623521Y-68118244D01*
X75623524Y-68118243D01*
X75768858Y-68074156D01*
X75844371Y-68066719D01*
X75882127Y-68063000D01*
X76517873Y-68063000D01*
X76555629Y-68066719D01*
G37*
G36*
X91795629Y-68066719D02*
G01*
X91871142Y-68074156D01*
X92016476Y-68118243D01*
X92016479Y-68118244D01*
X92150416Y-68189835D01*
X92267817Y-68286183D01*
X92364165Y-68403584D01*
X92435756Y-68537521D01*
X92435757Y-68537524D01*
X92479844Y-68682858D01*
X92494730Y-68834000D01*
X92479844Y-68985142D01*
X92435757Y-69130476D01*
X92435756Y-69130479D01*
X92364165Y-69264416D01*
X92267817Y-69381817D01*
X92150416Y-69478165D01*
X92016479Y-69549756D01*
X92016476Y-69549757D01*
X91871142Y-69593844D01*
X91795629Y-69601281D01*
X91757873Y-69605000D01*
X91122127Y-69605000D01*
X91084371Y-69601281D01*
X91008858Y-69593844D01*
X90863524Y-69549757D01*
X90863521Y-69549756D01*
X90729584Y-69478165D01*
X90612183Y-69381817D01*
X90515835Y-69264416D01*
X90444244Y-69130479D01*
X90444243Y-69130476D01*
X90400156Y-68985142D01*
X90385270Y-68834000D01*
X90400156Y-68682858D01*
X90444243Y-68537524D01*
X90444244Y-68537521D01*
X90515835Y-68403584D01*
X90612183Y-68286183D01*
X90729584Y-68189835D01*
X90863521Y-68118244D01*
X90863524Y-68118243D01*
X91008858Y-68074156D01*
X91084371Y-68066719D01*
X91122127Y-68063000D01*
X91757873Y-68063000D01*
X91795629Y-68066719D01*
G37*
G36*
X97371000Y-67145000D02*
G01*
X95669000Y-67145000D01*
X95669000Y-65443000D01*
X97371000Y-65443000D01*
X97371000Y-67145000D01*
G37*
G36*
X112008228Y-65475703D02*
G01*
X112163100Y-65539853D01*
X112302481Y-65632985D01*
X112421015Y-65751519D01*
X112514147Y-65890900D01*
X112578297Y-66045772D01*
X112611000Y-66210184D01*
X112611000Y-66377816D01*
X112578297Y-66542228D01*
X112514147Y-66697100D01*
X112421015Y-66836481D01*
X112302481Y-66955015D01*
X112163100Y-67048147D01*
X112008228Y-67112297D01*
X111843816Y-67145000D01*
X111676184Y-67145000D01*
X111511772Y-67112297D01*
X111356900Y-67048147D01*
X111217519Y-66955015D01*
X111098985Y-66836481D01*
X111005853Y-66697100D01*
X110941703Y-66542228D01*
X110909000Y-66377816D01*
X110909000Y-66210184D01*
X110941703Y-66045772D01*
X111005853Y-65890900D01*
X111098985Y-65751519D01*
X111217519Y-65632985D01*
X111356900Y-65539853D01*
X111511772Y-65475703D01*
X111676184Y-65443000D01*
X111843816Y-65443000D01*
X112008228Y-65475703D01*
G37*
G36*
X79591000Y-67145000D02*
G01*
X77889000Y-67145000D01*
X77889000Y-65443000D01*
X79591000Y-65443000D01*
X79591000Y-67145000D01*
G37*
G36*
X94228228Y-65475703D02*
G01*
X94383100Y-65539853D01*
X94522481Y-65632985D01*
X94641015Y-65751519D01*
X94734147Y-65890900D01*
X94798297Y-66045772D01*
X94831000Y-66210184D01*
X94831000Y-66377816D01*
X94798297Y-66542228D01*
X94734147Y-66697100D01*
X94641015Y-66836481D01*
X94522481Y-66955015D01*
X94383100Y-67048147D01*
X94228228Y-67112297D01*
X94063816Y-67145000D01*
X93896184Y-67145000D01*
X93731772Y-67112297D01*
X93576900Y-67048147D01*
X93437519Y-66955015D01*
X93318985Y-66836481D01*
X93225853Y-66697100D01*
X93161703Y-66542228D01*
X93129000Y-66377816D01*
X93129000Y-66210184D01*
X93161703Y-66045772D01*
X93225853Y-65890900D01*
X93318985Y-65751519D01*
X93437519Y-65632985D01*
X93576900Y-65539853D01*
X93731772Y-65475703D01*
X93896184Y-65443000D01*
X94063816Y-65443000D01*
X94228228Y-65475703D01*
G37*
G36*
X114655629Y-65526719D02*
G01*
X114731142Y-65534156D01*
X114876476Y-65578243D01*
X114876479Y-65578244D01*
X115010416Y-65649835D01*
X115127817Y-65746183D01*
X115224165Y-65863584D01*
X115295756Y-65997521D01*
X115295757Y-65997524D01*
X115339844Y-66142858D01*
X115354730Y-66294000D01*
X115339844Y-66445142D01*
X115295757Y-66590476D01*
X115295756Y-66590479D01*
X115224165Y-66724416D01*
X115127817Y-66841817D01*
X115010416Y-66938165D01*
X114876479Y-67009756D01*
X114876476Y-67009757D01*
X114731142Y-67053844D01*
X114655629Y-67061281D01*
X114617873Y-67065000D01*
X113982127Y-67065000D01*
X113944371Y-67061281D01*
X113868858Y-67053844D01*
X113723524Y-67009757D01*
X113723521Y-67009756D01*
X113589584Y-66938165D01*
X113472183Y-66841817D01*
X113375835Y-66724416D01*
X113304244Y-66590479D01*
X113304243Y-66590476D01*
X113260156Y-66445142D01*
X113245270Y-66294000D01*
X113260156Y-66142858D01*
X113304243Y-65997524D01*
X113304244Y-65997521D01*
X113375835Y-65863584D01*
X113472183Y-65746183D01*
X113589584Y-65649835D01*
X113723521Y-65578244D01*
X113723524Y-65578243D01*
X113868858Y-65534156D01*
X113944371Y-65526719D01*
X113982127Y-65523000D01*
X114617873Y-65523000D01*
X114655629Y-65526719D01*
G37*
G36*
X99415629Y-65526719D02*
G01*
X99491142Y-65534156D01*
X99636476Y-65578243D01*
X99636479Y-65578244D01*
X99770416Y-65649835D01*
X99887817Y-65746183D01*
X99984165Y-65863584D01*
X100055756Y-65997521D01*
X100055757Y-65997524D01*
X100099844Y-66142858D01*
X100114730Y-66294000D01*
X100099844Y-66445142D01*
X100055757Y-66590476D01*
X100055756Y-66590479D01*
X99984165Y-66724416D01*
X99887817Y-66841817D01*
X99770416Y-66938165D01*
X99636479Y-67009756D01*
X99636476Y-67009757D01*
X99491142Y-67053844D01*
X99415629Y-67061281D01*
X99377873Y-67065000D01*
X98742127Y-67065000D01*
X98704371Y-67061281D01*
X98628858Y-67053844D01*
X98483524Y-67009757D01*
X98483521Y-67009756D01*
X98349584Y-66938165D01*
X98232183Y-66841817D01*
X98135835Y-66724416D01*
X98064244Y-66590479D01*
X98064243Y-66590476D01*
X98020156Y-66445142D01*
X98005270Y-66294000D01*
X98020156Y-66142858D01*
X98064243Y-65997524D01*
X98064244Y-65997521D01*
X98135835Y-65863584D01*
X98232183Y-65746183D01*
X98349584Y-65649835D01*
X98483521Y-65578244D01*
X98483524Y-65578243D01*
X98628858Y-65534156D01*
X98704371Y-65526719D01*
X98742127Y-65523000D01*
X99377873Y-65523000D01*
X99415629Y-65526719D01*
G37*
G36*
X91795629Y-65526719D02*
G01*
X91871142Y-65534156D01*
X92016476Y-65578243D01*
X92016479Y-65578244D01*
X92150416Y-65649835D01*
X92267817Y-65746183D01*
X92364165Y-65863584D01*
X92435756Y-65997521D01*
X92435757Y-65997524D01*
X92479844Y-66142858D01*
X92494730Y-66294000D01*
X92479844Y-66445142D01*
X92435757Y-66590476D01*
X92435756Y-66590479D01*
X92364165Y-66724416D01*
X92267817Y-66841817D01*
X92150416Y-66938165D01*
X92016479Y-67009756D01*
X92016476Y-67009757D01*
X91871142Y-67053844D01*
X91795629Y-67061281D01*
X91757873Y-67065000D01*
X91122127Y-67065000D01*
X91084371Y-67061281D01*
X91008858Y-67053844D01*
X90863524Y-67009757D01*
X90863521Y-67009756D01*
X90729584Y-66938165D01*
X90612183Y-66841817D01*
X90515835Y-66724416D01*
X90444244Y-66590479D01*
X90444243Y-66590476D01*
X90400156Y-66445142D01*
X90385270Y-66294000D01*
X90400156Y-66142858D01*
X90444243Y-65997524D01*
X90444244Y-65997521D01*
X90515835Y-65863584D01*
X90612183Y-65746183D01*
X90729584Y-65649835D01*
X90863521Y-65578244D01*
X90863524Y-65578243D01*
X91008858Y-65534156D01*
X91084371Y-65526719D01*
X91122127Y-65523000D01*
X91757873Y-65523000D01*
X91795629Y-65526719D01*
G37*
G36*
X76555629Y-65526719D02*
G01*
X76631142Y-65534156D01*
X76776476Y-65578243D01*
X76776479Y-65578244D01*
X76910416Y-65649835D01*
X77027817Y-65746183D01*
X77124165Y-65863584D01*
X77195756Y-65997521D01*
X77195757Y-65997524D01*
X77239844Y-66142858D01*
X77254730Y-66294000D01*
X77239844Y-66445142D01*
X77195757Y-66590476D01*
X77195756Y-66590479D01*
X77124165Y-66724416D01*
X77027817Y-66841817D01*
X76910416Y-66938165D01*
X76776479Y-67009756D01*
X76776476Y-67009757D01*
X76631142Y-67053844D01*
X76555629Y-67061281D01*
X76517873Y-67065000D01*
X75882127Y-67065000D01*
X75844371Y-67061281D01*
X75768858Y-67053844D01*
X75623524Y-67009757D01*
X75623521Y-67009756D01*
X75489584Y-66938165D01*
X75372183Y-66841817D01*
X75275835Y-66724416D01*
X75204244Y-66590479D01*
X75204243Y-66590476D01*
X75160156Y-66445142D01*
X75145270Y-66294000D01*
X75160156Y-66142858D01*
X75204243Y-65997524D01*
X75204244Y-65997521D01*
X75275835Y-65863584D01*
X75372183Y-65746183D01*
X75489584Y-65649835D01*
X75623521Y-65578244D01*
X75623524Y-65578243D01*
X75768858Y-65534156D01*
X75844371Y-65526719D01*
X75882127Y-65523000D01*
X76517873Y-65523000D01*
X76555629Y-65526719D01*
G37*
G36*
X114655629Y-62986719D02*
G01*
X114731142Y-62994156D01*
X114876476Y-63038243D01*
X114876479Y-63038244D01*
X115010416Y-63109835D01*
X115127817Y-63206183D01*
X115224165Y-63323584D01*
X115295756Y-63457521D01*
X115295757Y-63457524D01*
X115339844Y-63602858D01*
X115354730Y-63754000D01*
X115339844Y-63905142D01*
X115295757Y-64050476D01*
X115295756Y-64050479D01*
X115224165Y-64184416D01*
X115127817Y-64301817D01*
X115010416Y-64398165D01*
X114876479Y-64469756D01*
X114876476Y-64469757D01*
X114731142Y-64513844D01*
X114655629Y-64521281D01*
X114617873Y-64525000D01*
X113982127Y-64525000D01*
X113944371Y-64521281D01*
X113868858Y-64513844D01*
X113723524Y-64469757D01*
X113723521Y-64469756D01*
X113589584Y-64398165D01*
X113472183Y-64301817D01*
X113375835Y-64184416D01*
X113304244Y-64050479D01*
X113304243Y-64050476D01*
X113260156Y-63905142D01*
X113245270Y-63754000D01*
X113260156Y-63602858D01*
X113304243Y-63457524D01*
X113304244Y-63457521D01*
X113375835Y-63323584D01*
X113472183Y-63206183D01*
X113589584Y-63109835D01*
X113723521Y-63038244D01*
X113723524Y-63038243D01*
X113868858Y-62994156D01*
X113944371Y-62986719D01*
X113982127Y-62983000D01*
X114617873Y-62983000D01*
X114655629Y-62986719D01*
G37*
G36*
X99415629Y-62986719D02*
G01*
X99491142Y-62994156D01*
X99636476Y-63038243D01*
X99636479Y-63038244D01*
X99770416Y-63109835D01*
X99887817Y-63206183D01*
X99984165Y-63323584D01*
X100055756Y-63457521D01*
X100055757Y-63457524D01*
X100099844Y-63602858D01*
X100114730Y-63754000D01*
X100099844Y-63905142D01*
X100055757Y-64050476D01*
X100055756Y-64050479D01*
X99984165Y-64184416D01*
X99887817Y-64301817D01*
X99770416Y-64398165D01*
X99636479Y-64469756D01*
X99636476Y-64469757D01*
X99491142Y-64513844D01*
X99415629Y-64521281D01*
X99377873Y-64525000D01*
X98742127Y-64525000D01*
X98704371Y-64521281D01*
X98628858Y-64513844D01*
X98483524Y-64469757D01*
X98483521Y-64469756D01*
X98349584Y-64398165D01*
X98232183Y-64301817D01*
X98135835Y-64184416D01*
X98064244Y-64050479D01*
X98064243Y-64050476D01*
X98020156Y-63905142D01*
X98005270Y-63754000D01*
X98020156Y-63602858D01*
X98064243Y-63457524D01*
X98064244Y-63457521D01*
X98135835Y-63323584D01*
X98232183Y-63206183D01*
X98349584Y-63109835D01*
X98483521Y-63038244D01*
X98483524Y-63038243D01*
X98628858Y-62994156D01*
X98704371Y-62986719D01*
X98742127Y-62983000D01*
X99377873Y-62983000D01*
X99415629Y-62986719D01*
G37*
G36*
X91795629Y-62986719D02*
G01*
X91871142Y-62994156D01*
X92016476Y-63038243D01*
X92016479Y-63038244D01*
X92150416Y-63109835D01*
X92267817Y-63206183D01*
X92364165Y-63323584D01*
X92435756Y-63457521D01*
X92435757Y-63457524D01*
X92479844Y-63602858D01*
X92494730Y-63754000D01*
X92479844Y-63905142D01*
X92435757Y-64050476D01*
X92435756Y-64050479D01*
X92364165Y-64184416D01*
X92267817Y-64301817D01*
X92150416Y-64398165D01*
X92016479Y-64469756D01*
X92016476Y-64469757D01*
X91871142Y-64513844D01*
X91795629Y-64521281D01*
X91757873Y-64525000D01*
X91122127Y-64525000D01*
X91084371Y-64521281D01*
X91008858Y-64513844D01*
X90863524Y-64469757D01*
X90863521Y-64469756D01*
X90729584Y-64398165D01*
X90612183Y-64301817D01*
X90515835Y-64184416D01*
X90444244Y-64050479D01*
X90444243Y-64050476D01*
X90400156Y-63905142D01*
X90385270Y-63754000D01*
X90400156Y-63602858D01*
X90444243Y-63457524D01*
X90444244Y-63457521D01*
X90515835Y-63323584D01*
X90612183Y-63206183D01*
X90729584Y-63109835D01*
X90863521Y-63038244D01*
X90863524Y-63038243D01*
X91008858Y-62994156D01*
X91084371Y-62986719D01*
X91122127Y-62983000D01*
X91757873Y-62983000D01*
X91795629Y-62986719D01*
G37*
G36*
X76555629Y-62986719D02*
G01*
X76631142Y-62994156D01*
X76776476Y-63038243D01*
X76776479Y-63038244D01*
X76910416Y-63109835D01*
X77027817Y-63206183D01*
X77124165Y-63323584D01*
X77195756Y-63457521D01*
X77195757Y-63457524D01*
X77239844Y-63602858D01*
X77254730Y-63754000D01*
X77239844Y-63905142D01*
X77195757Y-64050476D01*
X77195756Y-64050479D01*
X77124165Y-64184416D01*
X77027817Y-64301817D01*
X76910416Y-64398165D01*
X76776479Y-64469756D01*
X76776476Y-64469757D01*
X76631142Y-64513844D01*
X76555629Y-64521281D01*
X76517873Y-64525000D01*
X75882127Y-64525000D01*
X75844371Y-64521281D01*
X75768858Y-64513844D01*
X75623524Y-64469757D01*
X75623521Y-64469756D01*
X75489584Y-64398165D01*
X75372183Y-64301817D01*
X75275835Y-64184416D01*
X75204244Y-64050479D01*
X75204243Y-64050476D01*
X75160156Y-63905142D01*
X75145270Y-63754000D01*
X75160156Y-63602858D01*
X75204243Y-63457524D01*
X75204244Y-63457521D01*
X75275835Y-63323584D01*
X75372183Y-63206183D01*
X75489584Y-63109835D01*
X75623521Y-63038244D01*
X75623524Y-63038243D01*
X75768858Y-62994156D01*
X75844371Y-62986719D01*
X75882127Y-62983000D01*
X76517873Y-62983000D01*
X76555629Y-62986719D01*
G37*
G36*
X77251000Y-61985000D02*
G01*
X75149000Y-61985000D01*
X75149000Y-60443000D01*
X77251000Y-60443000D01*
X77251000Y-61985000D01*
G37*
G36*
X91795629Y-60446719D02*
G01*
X91871142Y-60454156D01*
X92016476Y-60498243D01*
X92016479Y-60498244D01*
X92150416Y-60569835D01*
X92267817Y-60666183D01*
X92364165Y-60783584D01*
X92435756Y-60917521D01*
X92435757Y-60917524D01*
X92479844Y-61062858D01*
X92494730Y-61214000D01*
X92479844Y-61365142D01*
X92435757Y-61510476D01*
X92435756Y-61510479D01*
X92364165Y-61644416D01*
X92267817Y-61761817D01*
X92150416Y-61858165D01*
X92016479Y-61929756D01*
X92016476Y-61929757D01*
X91871142Y-61973844D01*
X91795629Y-61981281D01*
X91757873Y-61985000D01*
X91122127Y-61985000D01*
X91084371Y-61981281D01*
X91008858Y-61973844D01*
X90863524Y-61929757D01*
X90863521Y-61929756D01*
X90729584Y-61858165D01*
X90612183Y-61761817D01*
X90515835Y-61644416D01*
X90444244Y-61510479D01*
X90444243Y-61510476D01*
X90400156Y-61365142D01*
X90385270Y-61214000D01*
X90400156Y-61062858D01*
X90444243Y-60917524D01*
X90444244Y-60917521D01*
X90515835Y-60783584D01*
X90612183Y-60666183D01*
X90729584Y-60569835D01*
X90863521Y-60498244D01*
X90863524Y-60498243D01*
X91008858Y-60454156D01*
X91084371Y-60446719D01*
X91122127Y-60443000D01*
X91757873Y-60443000D01*
X91795629Y-60446719D01*
G37*
G36*
X100111000Y-61985000D02*
G01*
X98009000Y-61985000D01*
X98009000Y-60443000D01*
X100111000Y-60443000D01*
X100111000Y-61985000D01*
G37*
G36*
X114655629Y-60446719D02*
G01*
X114731142Y-60454156D01*
X114876476Y-60498243D01*
X114876479Y-60498244D01*
X115010416Y-60569835D01*
X115127817Y-60666183D01*
X115224165Y-60783584D01*
X115295756Y-60917521D01*
X115295757Y-60917524D01*
X115339844Y-61062858D01*
X115354730Y-61214000D01*
X115339844Y-61365142D01*
X115295757Y-61510476D01*
X115295756Y-61510479D01*
X115224165Y-61644416D01*
X115127817Y-61761817D01*
X115010416Y-61858165D01*
X114876479Y-61929756D01*
X114876476Y-61929757D01*
X114731142Y-61973844D01*
X114655629Y-61981281D01*
X114617873Y-61985000D01*
X113982127Y-61985000D01*
X113944371Y-61981281D01*
X113868858Y-61973844D01*
X113723524Y-61929757D01*
X113723521Y-61929756D01*
X113589584Y-61858165D01*
X113472183Y-61761817D01*
X113375835Y-61644416D01*
X113304244Y-61510479D01*
X113304243Y-61510476D01*
X113260156Y-61365142D01*
X113245270Y-61214000D01*
X113260156Y-61062858D01*
X113304243Y-60917524D01*
X113304244Y-60917521D01*
X113375835Y-60783584D01*
X113472183Y-60666183D01*
X113589584Y-60569835D01*
X113723521Y-60498244D01*
X113723524Y-60498243D01*
X113868858Y-60454156D01*
X113944371Y-60446719D01*
X113982127Y-60443000D01*
X114617873Y-60443000D01*
X114655629Y-60446719D01*
G37*
M02*
