M48
; DRILL file {KiCad (5.1.5)-3} date 2021/04/08 22:53:59
; FORMAT={-:-/ absolute / metric / decimal}
; #@! TF.CreationDate,2021-04-08T22:53:59+09:00
; #@! TF.GenerationSoftware,Kicad,Pcbnew,(5.1.5)-3
FMAT,2
METRIC
T1C0.400
T2C0.800
T3C1.000
%
G90
G05
T1
X76.2Y-55.88
X76.2Y-114.3
X81.28Y-58.42
X81.28Y-71.12
X81.28Y-101.6
X81.28Y-109.22
X81.28Y-114.3
X83.82Y-55.88
X83.82Y-78.74
X83.82Y-83.82
X83.82Y-93.98
X83.82Y-104.14
X86.36Y-63.5
X86.36Y-68.834
X86.36Y-73.66
X86.36Y-88.9
X86.36Y-99.06
X86.36Y-106.68
X86.36Y-114.3
X88.9Y-58.42
X88.9Y-66.04
X88.9Y-73.66
X91.44Y-55.88
X91.44Y-114.3
X96.52Y-58.42
X96.52Y-63.5
X96.52Y-114.3
X99.06Y-55.88
X101.6Y-71.12
X101.6Y-78.74
X101.6Y-88.9
X101.6Y-99.06
X101.6Y-106.68
X101.6Y-114.3
X104.14Y-58.42
X104.14Y-68.58
X104.14Y-83.82
X104.14Y-93.98
X104.14Y-101.6
X104.14Y-111.76
X106.68Y-55.88
X106.68Y-88.9
X106.68Y-99.06
X106.68Y-106.68
X106.68Y-114.3
X109.22Y-63.5
X109.22Y-68.58
X109.22Y-76.2
X109.22Y-83.82
X109.22Y-93.98
X109.22Y-101.6
X109.22Y-109.22
X111.76Y-58.42
X111.76Y-114.3
X114.3Y-55.88
T2
X78.74Y-66.294
X78.74Y-68.834
X78.74Y-71.374
X78.74Y-73.914
X78.74Y-76.454
X78.74Y-78.994
X78.74Y-81.534
X78.74Y-84.074
X78.74Y-86.614
X78.74Y-89.154
X78.74Y-91.694
X78.74Y-94.234
X78.74Y-96.774
X78.74Y-99.314
X93.98Y-66.294
X93.98Y-68.834
X93.98Y-71.374
X93.98Y-73.914
X93.98Y-76.454
X93.98Y-78.994
X93.98Y-81.534
X93.98Y-84.074
X93.98Y-86.614
X93.98Y-89.154
X93.98Y-91.694
X93.98Y-94.234
X93.98Y-96.774
X93.98Y-99.314
X96.52Y-66.294
X96.52Y-68.834
X96.52Y-71.374
X96.52Y-73.914
X96.52Y-76.454
X96.52Y-78.994
X96.52Y-81.534
X96.52Y-84.074
X96.52Y-86.614
X96.52Y-89.154
X96.52Y-91.694
X96.52Y-94.234
X96.52Y-96.774
X96.52Y-99.314
X111.76Y-66.294
X111.76Y-68.834
X111.76Y-71.374
X111.76Y-73.914
X111.76Y-76.454
X111.76Y-78.994
X111.76Y-81.534
X111.76Y-84.074
X111.76Y-86.614
X111.76Y-89.154
X111.76Y-91.694
X111.76Y-94.234
X111.76Y-96.774
X111.76Y-99.314
T3
X99.06Y-61.214
X99.06Y-63.754
X99.06Y-66.294
X99.06Y-68.834
X99.06Y-71.374
X99.06Y-73.914
X99.06Y-76.454
X99.06Y-78.994
X99.06Y-81.534
X99.06Y-84.074
X99.06Y-86.614
X99.06Y-89.154
X99.06Y-91.694
X99.06Y-94.234
X99.06Y-96.774
X99.06Y-99.314
X99.06Y-101.854
X99.06Y-104.394
X99.06Y-106.934
X99.06Y-109.474
X114.3Y-61.214
X114.3Y-63.754
X114.3Y-66.294
X114.3Y-68.834
X114.3Y-71.374
X114.3Y-73.914
X114.3Y-76.454
X114.3Y-78.994
X114.3Y-81.534
X114.3Y-84.074
X114.3Y-86.614
X114.3Y-89.154
X114.3Y-91.694
X114.3Y-94.234
X114.3Y-96.774
X114.3Y-99.314
X114.3Y-101.854
X114.3Y-104.394
X114.3Y-106.934
X114.3Y-109.474
X76.2Y-61.214
X76.2Y-63.754
X76.2Y-66.294
X76.2Y-68.834
X76.2Y-71.374
X76.2Y-73.914
X76.2Y-76.454
X76.2Y-78.994
X76.2Y-81.534
X76.2Y-84.074
X76.2Y-86.614
X76.2Y-89.154
X76.2Y-91.694
X76.2Y-94.234
X76.2Y-96.774
X76.2Y-99.314
X76.2Y-101.854
X76.2Y-104.394
X76.2Y-106.934
X76.2Y-109.474
X91.44Y-61.214
X91.44Y-63.754
X91.44Y-66.294
X91.44Y-68.834
X91.44Y-71.374
X91.44Y-73.914
X91.44Y-76.454
X91.44Y-78.994
X91.44Y-81.534
X91.44Y-84.074
X91.44Y-86.614
X91.44Y-89.154
X91.44Y-91.694
X91.44Y-94.234
X91.44Y-96.774
X91.44Y-99.314
X91.44Y-101.854
X91.44Y-104.394
X91.44Y-106.934
X91.44Y-109.474
T0
M30
